<svg xmlns="http://www.w3.org/2000/svg" xmlns:xlink="http://www.w3.org/1999/xlink" contentStyleType="text/css" height="302px" preserveAspectRatio="none" style="width:733px;height:302px;background:#FFFFFF;" version="1.1" viewBox="0 0 733 302" width="733px" zoomAndPan="magnify"><defs/><g><!--cluster application.service--><g id="cluster_application.service"><path d="M8.5,104.0137 L135.5547,104.0137 A3.75,3.75 0 0 1 138.0547,106.5137 L145.0547,128.6348 L214.5,128.6348 A2.5,2.5 0 0 1 217,131.1348 L217,268.5137 A2.5,2.5 0 0 1 214.5,271.0137 L8.5,271.0137 A2.5,2.5 0 0 1 6,268.5137 L6,106.5137 A2.5,2.5 0 0 1 8.5,104.0137 " fill="none" style="stroke:#000000;stroke-width:1.5;"/><line style="stroke:#000000;stroke-width:1.5;" x1="6" x2="145.0547" y1="128.6348" y2="128.6348"/><text fill="#000000" font-family="sans-serif" font-size="14" font-weight="bold" lengthAdjust="spacing" textLength="126.0547" x="10" y="121.1211">application.service</text></g><!--cluster application.port.out--><g id="cluster_application.port.out"><path d="M247.5,6.0137 L379.1553,6.0137 A3.75,3.75 0 0 1 381.6553,8.5137 L388.6553,30.6348 L507.5,30.6348 A2.5,2.5 0 0 1 510,33.1348 L510,292.5137 A2.5,2.5 0 0 1 507.5,295.0137 L247.5,295.0137 A2.5,2.5 0 0 1 245,292.5137 L245,8.5137 A2.5,2.5 0 0 1 247.5,6.0137 " fill="none" style="stroke:#000000;stroke-width:1.5;"/><line style="stroke:#000000;stroke-width:1.5;" x1="245" x2="388.6553" y1="30.6348" y2="30.6348"/><text fill="#000000" font-family="sans-serif" font-size="14" font-weight="bold" lengthAdjust="spacing" textLength="130.6553" x="249" y="23.1211">application.port.out</text></g><!--cluster adapter.out.persistence--><g id="cluster_adapter.out.persistence"><path d="M540.5,104.0137 L699.4375,104.0137 A3.75,3.75 0 0 1 701.9375,106.5137 L708.9375,128.6348 L723.5,128.6348 A2.5,2.5 0 0 1 726,131.1348 L726,194.5137 A2.5,2.5 0 0 1 723.5,197.0137 L540.5,197.0137 A2.5,2.5 0 0 1 538,194.5137 L538,106.5137 A2.5,2.5 0 0 1 540.5,104.0137 " fill="none" style="stroke:#000000;stroke-width:1.5;"/><line style="stroke:#000000;stroke-width:1.5;" x1="538" x2="708.9375" y1="128.6348" y2="128.6348"/><text fill="#000000" font-family="sans-serif" font-size="14" font-weight="bold" lengthAdjust="spacing" textLength="157.9375" x="542" y="121.1211">adapter.out.persistence</text></g><!--entity sms--><g id="elem_sms"><rect fill="#F1F1F1" height="38.6211" rx="2.5" ry="2.5" style="stroke:#181818;stroke-width:0.5;" width="151.3389" x="36" y="141.5137"/><text fill="#000000" font-family="sans-serif" font-size="14" lengthAdjust="spacing" textLength="131.3389" x="46" y="166.6211">"SendMoneyService"</text></g><!--entity ras--><g id="elem_ras"><rect fill="#F1F1F1" height="38.6211" rx="2.5" ry="2.5" style="stroke:#181818;stroke-width:0.5;" width="179.3389" x="22" y="215.5137"/><text fill="#000000" font-family="sans-serif" font-size="14" lengthAdjust="spacing" textLength="159.3389" x="32" y="240.6211">"RegisterAccountService"</text></g><g id="elem_lap"><ellipse cx="377.5221" cy="70.9939" fill="#F1F1F1" rx="88.0221" ry="27.4802" style="stroke:#181818;stroke-width:0.5;"/><text fill="#000000" font-family="sans-serif" font-size="14" font-style="italic" lengthAdjust="spacing" textLength="69.2686" x="336.5807" y="64.6599">&#171;interface&#187;</text><text fill="#000000" font-family="sans-serif" font-size="14" lengthAdjust="spacing" textLength="117.3457" x="312.5421" y="83.281">"LoadAccountPort"</text></g><g id="elem_uasp"><ellipse cx="377.6396" cy="161.0554" fill="#F1F1F1" rx="116.6396" ry="27.0417" style="stroke:#181818;stroke-width:0.5;"/><text fill="#000000" font-family="sans-serif" font-size="14" font-style="italic" lengthAdjust="spacing" textLength="69.2686" x="335.7993" y="153.8236">&#171;interface&#187;</text><text fill="#000000" font-family="sans-serif" font-size="14" lengthAdjust="spacing" textLength="164.0352" x="288.416" y="172.4447">"UpdateAccountStatePort"</text></g><g id="elem_cap"><ellipse cx="377.6172" cy="250.8467" fill="#F1F1F1" rx="94.6172" ry="27.3331" style="stroke:#181818;stroke-width:0.5;"/><text fill="#000000" font-family="sans-serif" font-size="14" font-style="italic" lengthAdjust="spacing" textLength="69.2686" x="336.472" y="244.2267">&#171;interface&#187;</text><text fill="#000000" font-family="sans-serif" font-size="14" lengthAdjust="spacing" textLength="128.2217" x="306.9955" y="262.8478">"CreateAccountPort"</text></g><!--entity pa--><g id="elem_pa"><rect fill="#F1F1F1" height="38.6211" rx="2.5" ry="2.5" style="stroke:#181818;stroke-width:0.5;" width="156.0078" x="554" y="141.5137"/><text fill="#000000" font-family="sans-serif" font-size="14" lengthAdjust="spacing" textLength="136.0078" x="564" y="166.6211">"Persistence Adapter"</text></g><!--link sms to lap--><g id="link_sms_lap"><path d="M165.37,141.4437 C187.45,133.3937 213.4,124.0837 237,116.0137 C262.4,107.3237 284.8451,99.9911 309.1751,92.2111 " fill="none" id="sms-to-lap" style="stroke:#181818;stroke-width:1.0;"/><polygon fill="#181818" points="314.89,90.3837,305.0993,89.3149,310.1276,91.9066,307.5359,96.9348,314.89,90.3837" style="stroke:#181818;stroke-width:1.0;"/></g><!--link sms to uasp--><g id="link_sms_uasp"><path d="M187.09,161.0137 C209.96,161.0137 229.69,161.0137 254.64,161.0137 " fill="none" id="sms-to-uasp" style="stroke:#181818;stroke-width:1.0;"/><polygon fill="#181818" points="260.64,161.0137,251.64,157.0137,255.64,161.0137,251.64,165.0137,260.64,161.0137" style="stroke:#181818;stroke-width:1.0;"/></g><!--link ras to cap--><g id="link_ras_cap"><path d="M201.14,240.3837 C228.11,242.0237 251.7909,243.462 278.9509,245.102 " fill="none" id="ras-to-cap" style="stroke:#181818;stroke-width:1.0;"/><polygon fill="#181818" points="284.94,245.4637,276.1975,240.9285,279.9491,245.1623,275.7153,248.9139,284.94,245.4637" style="stroke:#181818;stroke-width:1.0;"/></g><!--reverse link lap to pa--><g id="link_lap_pa"><path d="M458.1061,95.6205 C482.2961,103.3005 492.98,107.0037 518,116.0137 C539.86,123.8837 563.79,133.2937 583.99,141.4737 " fill="none" id="lap-backto-pa" style="stroke:#181818;stroke-width:1.0;"/><polygon fill="none" points="440.95,90.1737,456.2905,101.3392,459.9217,89.9018,440.95,90.1737" style="stroke:#181818;stroke-width:1.0;"/></g><!--reverse link uasp to pa--><g id="link_uasp_pa"><path d="M512.04,161.0137 C532.29,161.0137 534.92,161.0137 553.81,161.0137 " fill="none" id="uasp-backto-pa" style="stroke:#181818;stroke-width:1.0;"/><polygon fill="none" points="494.04,161.0137,512.04,167.0137,512.04,155.0137,494.04,161.0137" style="stroke:#181818;stroke-width:1.0;"/></g><!--reverse link cap to pa--><g id="link_cap_pa"><path d="M459.0538,225.2954 C482.9838,217.4954 493.28,213.8937 518,205.0137 C539.3,197.3637 562.64,188.3737 582.54,180.5337 " fill="none" id="cap-backto-pa" style="stroke:#181818;stroke-width:1.0;"/><polygon fill="none" points="441.94,230.8737,460.9132,231,457.1944,219.5908,441.94,230.8737" style="stroke:#181818;stroke-width:1.0;"/></g><!--SRC=[TL3DQiCm3BxxAKGksmv9xgCKoguhb9MTnWx2KLDJnnQsCYZRtdrocxJTeGQ3vUzFqiDUXFDpsxB78EFW6nk7LY_7G47gpc6VS30caq0cneGI4mH5ZQUTW4H8hjyBT2wH5HU3SWyk5EO05wEj73r1OM3eFHd3Q0_O4rJ8x9t5ecmofIzdgO9l0te-gYs5Rgq6n-s4V09co4EUy3VgNHPAAslZg2cth8JP_Du9ufYaYQFCIO_LQyHkSjaeM3t1Ok62Mk_Gqd9P33toH7xd3eNcKD7tFSs8UHQz9BgAxl6jPlnhkaDMGkcrOKgvJ1jkDxIvViBgJ3wFprYCT5LGryjJx_Fxr9DkvrIKGACeB7xgkeWAUYdi3V07]--></g></svg>