<svg xmlns="http://www.w3.org/2000/svg" xmlns:xlink="http://www.w3.org/1999/xlink" contentStyleType="text/css" height="573px" preserveAspectRatio="none" style="width:847px;height:573px;background:#FFFFFF;" version="1.1" viewBox="0 0 847 573" width="847px" zoomAndPan="magnify"><defs/><g><!--cluster account--><g id="cluster_account"><path d="M25,208.0137 L79.6758,208.0137 A3.75,3.75 0 0 1 82.1758,210.5137 L89.1758,232.6348 L821,232.6348 A2.5,2.5 0 0 1 823.5,235.1348 L823.5,563.5137 A2.5,2.5 0 0 1 821,566.0137 L25,566.0137 A2.5,2.5 0 0 1 22.5,563.5137 L22.5,210.5137 A2.5,2.5 0 0 1 25,208.0137 " fill="none" style="stroke:#000000;stroke-width:1.5;"/><line style="stroke:#000000;stroke-width:1.5;" x1="22.5" x2="89.1758" y1="232.6348" y2="232.6348"/><text fill="#000000" font-family="sans-serif" font-size="14" font-weight="bold" lengthAdjust="spacing" textLength="53.6758" x="26.5" y="225.1211">account</text></g><!--cluster as1--><g id="cluster_as1"><path d="M49,351.0137 L176.0547,351.0137 A3.75,3.75 0 0 1 178.5547,353.5137 L185.5547,375.6348 L255,375.6348 A2.5,2.5 0 0 1 257.5,378.1348 L257.5,515.5137 A2.5,2.5 0 0 1 255,518.0137 L49,518.0137 A2.5,2.5 0 0 1 46.5,515.5137 L46.5,353.5137 A2.5,2.5 0 0 1 49,351.0137 " fill="none" style="stroke:#000000;stroke-width:1.5;"/><line style="stroke:#000000;stroke-width:1.5;" x1="46.5" x2="185.5547" y1="375.6348" y2="375.6348"/><text fill="#000000" font-family="sans-serif" font-size="14" font-weight="bold" lengthAdjust="spacing" textLength="126.0547" x="50.5" y="368.1211">application.service</text></g><!--cluster apo1--><g id="cluster_apo1"><path d="M304.5,253.0137 L436.1553,253.0137 A3.75,3.75 0 0 1 438.6553,255.5137 L445.6553,277.6348 L564.5,277.6348 A2.5,2.5 0 0 1 567,280.1348 L567,539.5137 A2.5,2.5 0 0 1 564.5,542.0137 L304.5,542.0137 A2.5,2.5 0 0 1 302,539.5137 L302,255.5137 A2.5,2.5 0 0 1 304.5,253.0137 " fill="none" style="stroke:#000000;stroke-width:1.5;"/><line style="stroke:#000000;stroke-width:1.5;" x1="302" x2="445.6553" y1="277.6348" y2="277.6348"/><text fill="#000000" font-family="sans-serif" font-size="14" font-weight="bold" lengthAdjust="spacing" textLength="130.6553" x="306" y="270.1211">application.port.out</text></g><!--cluster aop1--><g id="cluster_aop1"><path d="M614,351.0137 L772.9375,351.0137 A3.75,3.75 0 0 1 775.4375,353.5137 L782.4375,375.6348 L797,375.6348 A2.5,2.5 0 0 1 799.5,378.1348 L799.5,441.5137 A2.5,2.5 0 0 1 797,444.0137 L614,444.0137 A2.5,2.5 0 0 1 611.5,441.5137 L611.5,353.5137 A2.5,2.5 0 0 1 614,351.0137 " fill="none" style="stroke:#000000;stroke-width:1.5;"/><line style="stroke:#000000;stroke-width:1.5;" x1="611.5" x2="782.4375" y1="375.6348" y2="375.6348"/><text fill="#000000" font-family="sans-serif" font-size="14" font-weight="bold" lengthAdjust="spacing" textLength="157.9375" x="615.5" y="368.1211">adapter.out.persistence</text></g><!--cluster billing--><g id="cluster_billing"><path d="M8.5,6.0137 L50.7139,6.0137 A3.75,3.75 0 0 1 53.2139,8.5137 L60.2139,30.6348 L837.5,30.6348 A2.5,2.5 0 0 1 840,33.1348 L840,181.5137 A2.5,2.5 0 0 1 837.5,184.0137 L8.5,184.0137 A2.5,2.5 0 0 1 6,181.5137 L6,8.5137 A2.5,2.5 0 0 1 8.5,6.0137 " fill="none" style="stroke:#000000;stroke-width:1.5;"/><line style="stroke:#000000;stroke-width:1.5;" x1="6" x2="60.2139" y1="30.6348" y2="30.6348"/><text fill="#000000" font-family="sans-serif" font-size="14" font-weight="bold" lengthAdjust="spacing" textLength="41.2139" x="10" y="23.1211">billing</text></g><!--cluster application.service--><g id="cluster_application.service"><path d="M32.5,59.0137 L159.5547,59.0137 A3.75,3.75 0 0 1 162.0547,61.5137 L169.0547,83.6348 L271.5,83.6348 A2.5,2.5 0 0 1 274,86.1348 L274,149.5137 A2.5,2.5 0 0 1 271.5,152.0137 L32.5,152.0137 A2.5,2.5 0 0 1 30,149.5137 L30,61.5137 A2.5,2.5 0 0 1 32.5,59.0137 " fill="none" style="stroke:#000000;stroke-width:1.5;"/><line style="stroke:#000000;stroke-width:1.5;" x1="30" x2="169.0547" y1="83.6348" y2="83.6348"/><text fill="#000000" font-family="sans-serif" font-size="14" font-weight="bold" lengthAdjust="spacing" textLength="126.0547" x="34" y="76.1211">application.service</text></g><!--cluster application.port.out--><g id="cluster_application.port.out"><path d="M330,51.0137 L461.6553,51.0137 A3.75,3.75 0 0 1 464.1553,53.5137 L471.1553,75.6348 L539,75.6348 A2.5,2.5 0 0 1 541.5,78.1348 L541.5,157.5137 A2.5,2.5 0 0 1 539,160.0137 L330,160.0137 A2.5,2.5 0 0 1 327.5,157.5137 L327.5,53.5137 A2.5,2.5 0 0 1 330,51.0137 " fill="none" style="stroke:#000000;stroke-width:1.5;"/><line style="stroke:#000000;stroke-width:1.5;" x1="327.5" x2="471.1553" y1="75.6348" y2="75.6348"/><text fill="#000000" font-family="sans-serif" font-size="14" font-weight="bold" lengthAdjust="spacing" textLength="130.6553" x="331.5" y="68.1211">application.port.out</text></g><!--cluster adapter.out.persistence--><g id="cluster_adapter.out.persistence"><path d="M597.5,59.0137 L756.4375,59.0137 A3.75,3.75 0 0 1 758.9375,61.5137 L765.9375,83.6348 L813.5,83.6348 A2.5,2.5 0 0 1 816,86.1348 L816,149.5137 A2.5,2.5 0 0 1 813.5,152.0137 L597.5,152.0137 A2.5,2.5 0 0 1 595,149.5137 L595,61.5137 A2.5,2.5 0 0 1 597.5,59.0137 " fill="none" style="stroke:#000000;stroke-width:1.5;"/><line style="stroke:#000000;stroke-width:1.5;" x1="595" x2="765.9375" y1="83.6348" y2="83.6348"/><text fill="#000000" font-family="sans-serif" font-size="14" font-weight="bold" lengthAdjust="spacing" textLength="157.9375" x="599" y="76.1211">adapter.out.persistence</text></g><!--entity sms--><g id="elem_sms"><rect fill="#F1F1F1" height="38.6211" rx="2.5" ry="2.5" style="stroke:#181818;stroke-width:0.5;" width="151.3389" x="76.5" y="388.5137"/><text fill="#000000" font-family="sans-serif" font-size="14" lengthAdjust="spacing" textLength="131.3389" x="86.5" y="413.6211">"SendMoneyService"</text></g><!--entity ras--><g id="elem_ras"><rect fill="#F1F1F1" height="38.6211" rx="2.5" ry="2.5" style="stroke:#181818;stroke-width:0.5;" width="179.3389" x="62.5" y="462.5137"/><text fill="#000000" font-family="sans-serif" font-size="14" lengthAdjust="spacing" textLength="159.3389" x="72.5" y="487.6211">"RegisterAccountService"</text></g><g id="elem_lap"><ellipse cx="434.5221" cy="317.9939" fill="#F1F1F1" rx="88.0221" ry="27.4802" style="stroke:#181818;stroke-width:0.5;"/><text fill="#000000" font-family="sans-serif" font-size="14" font-style="italic" lengthAdjust="spacing" textLength="69.2686" x="393.5807" y="311.6599">&#171;interface&#187;</text><text fill="#000000" font-family="sans-serif" font-size="14" lengthAdjust="spacing" textLength="117.3457" x="369.5421" y="330.281">"LoadAccountPort"</text></g><g id="elem_uasp"><ellipse cx="434.6396" cy="408.0554" fill="#F1F1F1" rx="116.6396" ry="27.0417" style="stroke:#181818;stroke-width:0.5;"/><text fill="#000000" font-family="sans-serif" font-size="14" font-style="italic" lengthAdjust="spacing" textLength="69.2686" x="392.7993" y="400.8236">&#171;interface&#187;</text><text fill="#000000" font-family="sans-serif" font-size="14" lengthAdjust="spacing" textLength="164.0352" x="345.416" y="419.4447">"UpdateAccountStatePort"</text></g><g id="elem_cap"><ellipse cx="434.6172" cy="497.8467" fill="#F1F1F1" rx="94.6172" ry="27.3331" style="stroke:#181818;stroke-width:0.5;"/><text fill="#000000" font-family="sans-serif" font-size="14" font-style="italic" lengthAdjust="spacing" textLength="69.2686" x="393.472" y="491.2267">&#171;interface&#187;</text><text fill="#000000" font-family="sans-serif" font-size="14" lengthAdjust="spacing" textLength="128.2217" x="363.9955" y="509.8478">"CreateAccountPort"</text></g><!--entity pa--><g id="elem_pa"><rect fill="#F1F1F1" height="38.6211" rx="2.5" ry="2.5" style="stroke:#181818;stroke-width:0.5;" width="156.0078" x="627.5" y="388.5137"/><text fill="#000000" font-family="sans-serif" font-size="14" lengthAdjust="spacing" textLength="136.0078" x="637.5" y="413.6211">"Persistence Adapter"</text></g><!--entity cmis--><g id="elem_cmis"><rect fill="#F1F1F1" height="38.6211" rx="2.5" ry="2.5" style="stroke:#181818;stroke-width:0.5;" width="212.0215" x="46" y="96.5137"/><text fill="#000000" font-family="sans-serif" font-size="14" lengthAdjust="spacing" textLength="192.0215" x="56" y="121.6211">"CreateMonthlyInvoiceService"</text></g><g id="elem_cip"><ellipse cx="434.3337" cy="115.9261" fill="#F1F1F1" rx="90.8337" ry="27.4124" style="stroke:#181818;stroke-width:0.5;"/><text fill="#000000" font-family="sans-serif" font-size="14" font-style="italic" lengthAdjust="spacing" textLength="69.2686" x="393.3058" y="109.4617">&#171;interface&#187;</text><text fill="#000000" font-family="sans-serif" font-size="14" lengthAdjust="spacing" textLength="121.9941" x="366.943" y="128.0828">"CreateInvoicePort"</text></g><!--entity bpa--><g id="elem_bpa"><rect fill="#F1F1F1" height="38.6211" rx="2.5" ry="2.5" style="stroke:#181818;stroke-width:0.5;" width="189.4697" x="611" y="96.5137"/><text fill="#000000" font-family="sans-serif" font-size="14" lengthAdjust="spacing" textLength="169.4697" x="621" y="121.6211">"BillingPersistenceAdapter"</text></g><!--link sms to lap--><g id="link_sms_lap"><path d="M213.86,388.4837 C260.75,373.4437 319.5767,354.5663 366.5567,339.4963 " fill="none" id="sms-to-lap" style="stroke:#181818;stroke-width:1.0;"/><polygon fill="#181818" points="372.27,337.6637,362.4783,336.6038,367.509,339.1909,364.9219,344.2215,372.27,337.6637" style="stroke:#181818;stroke-width:1.0;"/></g><!--link sms to uasp--><g id="link_sms_uasp"><path d="M227.8,408.0137 C255.47,408.0137 281.52,408.0137 311.97,408.0137 " fill="none" id="sms-to-uasp" style="stroke:#181818;stroke-width:1.0;"/><polygon fill="#181818" points="317.97,408.0137,308.97,404.0137,312.97,408.0137,308.97,412.0137,317.97,408.0137" style="stroke:#181818;stroke-width:1.0;"/></g><!--link ras to cap--><g id="link_ras_cap"><path d="M241.75,487.0737 C273.53,488.8937 303.4198,490.5916 335.4698,492.4216 " fill="none" id="ras-to-cap" style="stroke:#181818;stroke-width:1.0;"/><polygon fill="#181818" points="341.46,492.7637,332.7027,488.2571,336.4681,492.4786,332.2466,496.2441,341.46,492.7637" style="stroke:#181818;stroke-width:1.0;"/></g><!--reverse link lap to pa--><g id="link_lap_pa"><path d="M514.2,343.0409 C538.52,350.8409 549.54,354.4837 575,363.0137 C599.37,371.1837 626.23,380.4637 649.14,388.4737 " fill="none" id="lap-backto-pa" style="stroke:#181818;stroke-width:1.0;"/><polygon fill="none" points="497.06,337.5437,512.3676,348.7542,516.0324,337.3275,497.06,337.5437" style="stroke:#181818;stroke-width:1.0;"/></g><!--reverse link uasp to pa--><g id="link_uasp_pa"><path d="M569.14,408.0137 C594.92,408.0137 603.63,408.0137 627.4,408.0137 " fill="none" id="uasp-backto-pa" style="stroke:#181818;stroke-width:1.0;"/><polygon fill="none" points="551.14,408.0137,569.14,414.0137,569.14,402.0137,551.14,408.0137" style="stroke:#181818;stroke-width:1.0;"/></g><!--reverse link cap to pa--><g id="link_cap_pa"><path d="M515.1382,471.8977 C539.2082,463.9777 549.85,460.4337 575,452.0137 C598.64,444.1037 624.68,435.2737 647.16,427.6237 " fill="none" id="cap-backto-pa" style="stroke:#181818;stroke-width:1.0;"/><polygon fill="none" points="498.04,477.5237,517.0135,477.5971,513.2629,466.1983,498.04,477.5237" style="stroke:#181818;stroke-width:1.0;"/></g><!--link cmis to cip--><g id="link_cmis_cip"><path d="M258.25,116.0137 C286.23,116.0137 310.2,116.0137 337.29,116.0137 " fill="none" id="cmis-to-cip" style="stroke:#181818;stroke-width:1.0;"/><polygon fill="#181818" points="343.29,116.0137,334.29,112.0137,338.29,116.0137,334.29,120.0137,343.29,116.0137" style="stroke:#181818;stroke-width:1.0;"/></g><!--reverse link cip to bpa--><g id="link_cip_bpa"><path d="M543.82,116.0137 C571.14,116.0137 583.2,116.0137 610.74,116.0137 " fill="none" id="cip-backto-bpa" style="stroke:#181818;stroke-width:1.0;"/><polygon fill="none" points="525.82,116.0137,543.82,122.0137,543.82,110.0137,525.82,116.0137" style="stroke:#181818;stroke-width:1.0;"/></g><!--SRC=[bPBVQy8m4CVV-rU4lcnxQ6MlGmItfy46CjdJsCEPtcemJK9o2kByttSnLLD4cA65zFgvNz-xkoMH2q-ZaTDWQDtfMjfknA-p1WrLZOBMGrSK0Ka4TE21h1U6_nOQVqYG5LwrInADyYX9MSFiIfb8Tk8KQ4vRZI8IO5gDHU50hg15KOAKTcse5Bj2y3dRdTDAGenO1_GR9R4K4FXvxD5ulievckQTSspdFVGTgT25ZFd0LWL2Fqsv1gI7HEwBw_cTzLJRDQK2dCqhk2_VB3Hzv1c3vOCOZvNXT3yWSJA9FXfSvl3f6Y0y5aDyl-QtXf0xldWyErxpaNskYuOQS0p6Fcg7FaH5p55KwuQgpiw0c2R799U3F3ZBBAfgSkhl-7sgczKz669H1mEJOlnRLST0aHmOP0RiiprPAAsLQV-t9tahIJHU4LhgxQlPM2O66o0xTSiAx2u6qWUzEX1ruq3owfzJszay1kDO3ESHMqbwgrvllYGv5mSz_m00]--></g></svg>