<svg xmlns="http://www.w3.org/2000/svg" xmlns:xlink="http://www.w3.org/1999/xlink" contentStyleType="text/css" height="239px" preserveAspectRatio="none" style="width:669px;height:239px;background:#FFFFFF;" version="1.1" viewBox="0 0 669 239" width="669px" zoomAndPan="magnify"><defs/><g><!--cluster application.port.in--><g id="cluster_application.port.in"><path d="M8.5,6.0137 L130.8311,6.0137 A3.75,3.75 0 0 1 133.3311,8.5137 L140.3311,30.6348 L207.5,30.6348 A2.5,2.5 0 0 1 210,33.1348 L210,229.5137 A2.5,2.5 0 0 1 207.5,232.0137 L8.5,232.0137 A2.5,2.5 0 0 1 6,229.5137 L6,8.5137 A2.5,2.5 0 0 1 8.5,6.0137 " fill="none" style="stroke:#000000;stroke-width:1.5;"/><line style="stroke:#000000;stroke-width:1.5;" x1="6" x2="140.3311" y1="30.6348" y2="30.6348"/><text fill="#000000" font-family="sans-serif" font-size="14" font-weight="bold" lengthAdjust="spacing" textLength="121.3311" x="10" y="23.1211">application.port.in</text></g><!--cluster application.service--><g id="cluster_application.service"><path d="M236.5,6.0137 L363.5547,6.0137 A3.75,3.75 0 0 1 366.0547,8.5137 L373.0547,30.6348 L417.5,30.6348 A2.5,2.5 0 0 1 420,33.1348 L420,104.5137 A2.5,2.5 0 0 1 417.5,107.0137 L236.5,107.0137 A2.5,2.5 0 0 1 234,104.5137 L234,8.5137 A2.5,2.5 0 0 1 236.5,6.0137 " fill="none" style="stroke:#000000;stroke-width:1.5;"/><line style="stroke:#000000;stroke-width:1.5;" x1="234" x2="373.0547" y1="30.6348" y2="30.6348"/><text fill="#000000" font-family="sans-serif" font-size="14" font-weight="bold" lengthAdjust="spacing" textLength="126.0547" x="238" y="23.1211">application.service</text></g><!--cluster domain--><g id="cluster_domain"><path d="M271.5,131.0137 L322.2793,131.0137 A3.75,3.75 0 0 1 324.7793,133.5137 L331.7793,155.6348 L382.5,155.6348 A2.5,2.5 0 0 1 385,158.1348 L385,229.5137 A2.5,2.5 0 0 1 382.5,232.0137 L271.5,232.0137 A2.5,2.5 0 0 1 269,229.5137 L269,133.5137 A2.5,2.5 0 0 1 271.5,131.0137 " fill="none" style="stroke:#000000;stroke-width:1.5;"/><line style="stroke:#000000;stroke-width:1.5;" x1="269" x2="331.7793" y1="155.6348" y2="155.6348"/><text fill="#000000" font-family="sans-serif" font-size="14" font-weight="bold" lengthAdjust="spacing" textLength="49.7793" x="273" y="148.1211">domain</text></g><!--cluster application.port.out--><g id="cluster_application.port.out"><path d="M446.5,6.0137 L578.1553,6.0137 A3.75,3.75 0 0 1 580.6553,8.5137 L587.6553,30.6348 L659.5,30.6348 A2.5,2.5 0 0 1 662,33.1348 L662,104.5137 A2.5,2.5 0 0 1 659.5,107.0137 L446.5,107.0137 A2.5,2.5 0 0 1 444,104.5137 L444,8.5137 A2.5,2.5 0 0 1 446.5,6.0137 " fill="none" style="stroke:#000000;stroke-width:1.5;"/><line style="stroke:#000000;stroke-width:1.5;" x1="444" x2="587.6553" y1="30.6348" y2="30.6348"/><text fill="#000000" font-family="sans-serif" font-size="14" font-weight="bold" lengthAdjust="spacing" textLength="130.6553" x="448" y="23.1211">application.port.out</text></g><!--class usecase--><g id="elem_usecase"><rect codeLine="6" fill="#F1F1F1" height="48" id="usecase" rx="2.5" ry="2.5" style="stroke:#181818;stroke-width:0.5;" width="164.2959" x="28" y="43.0137"/><ellipse cx="43" cy="59.0137" fill="#B4A7E5" rx="11" ry="11" style="stroke:#181818;stroke-width:1.0;"/><path d="M43.9531,55.6543 L43.9531,62.3105 L45.6719,62.3105 Q46.2813,62.3105 46.5469,62.5449 Q46.8125,62.7793 46.8125,63.1699 Q46.8125,63.5449 46.5469,63.7793 Q46.2813,64.0137 45.6719,64.0137 L40.5313,64.0137 Q39.9219,64.0137 39.6563,63.7793 Q39.3906,63.5449 39.3906,63.1543 Q39.3906,62.7793 39.6563,62.5449 Q39.9219,62.3105 40.5313,62.3105 L42.25,62.3105 L42.25,55.6543 L40.5313,55.6543 Q39.9219,55.6543 39.6563,55.4199 Q39.3906,55.1855 39.3906,54.7949 Q39.3906,54.4199 39.6563,54.1855 Q39.9219,53.9512 40.5313,53.9512 L45.6719,53.9512 Q46.2813,53.9512 46.5469,54.1855 Q46.8125,54.4199 46.8125,54.7949 Q46.8125,55.1855 46.5469,55.4199 Q46.2813,55.6543 45.6719,55.6543 L43.9531,55.6543 Z " fill="#000000"/><text fill="#000000" font-family="sans-serif" font-size="14" font-style="italic" lengthAdjust="spacing" textLength="132.2959" x="57" y="64.8105">SendMoneyUseCase</text><line style="stroke:#181818;stroke-width:0.5;" x1="29" x2="191.2959" y1="75.0137" y2="75.0137"/><line style="stroke:#181818;stroke-width:0.5;" x1="29" x2="191.2959" y1="83.0137" y2="83.0137"/></g><!--class command--><g id="elem_command"><rect codeLine="7" fill="#F1F1F1" height="48" id="command" rx="2.5" ry="2.5" style="stroke:#181818;stroke-width:0.5;" width="171.2959" x="22.5" y="168.0137"/><ellipse cx="37.5" cy="184.0137" fill="#ADD1B2" rx="11" ry="11" style="stroke:#181818;stroke-width:1.0;"/><path d="M40.2656,179.8887 Q40.4219,179.6699 40.6094,179.5605 Q40.7969,179.4512 41.0156,179.4512 Q41.3906,179.4512 41.625,179.7168 Q41.8594,179.9668 41.8594,180.5762 L41.8594,182.0293 Q41.8594,182.6387 41.625,182.9043 Q41.3906,183.1699 41.0156,183.1699 Q40.6719,183.1699 40.4688,182.9668 Q40.2656,182.7793 40.1563,182.2637 Q40.1094,181.9043 39.9219,181.7168 Q39.5938,181.3418 38.9844,181.123 Q38.375,180.9043 37.75,180.9043 Q36.9844,180.9043 36.3438,181.2324 Q35.7188,181.5605 35.2188,182.3105 Q34.7344,183.0605 34.7344,184.0918 L34.7344,185.1855 Q34.7344,186.4199 35.625,187.248 Q36.5156,188.0605 38.1094,188.0605 Q39.0469,188.0605 39.7031,187.8105 Q40.0938,187.6543 40.5156,187.2168 Q40.7813,186.9512 40.9219,186.873 Q41.0781,186.7949 41.2813,186.7949 Q41.6094,186.7949 41.8594,187.0605 Q42.125,187.3105 42.125,187.6543 Q42.125,187.998 41.7813,188.4043 Q41.2813,188.9824 40.4844,189.3105 Q39.4063,189.7637 38.1094,189.7637 Q36.5938,189.7637 35.3906,189.1387 Q34.4063,188.6387 33.7188,187.5762 Q33.0313,186.498 33.0313,185.2168 L33.0313,184.0605 Q33.0313,182.7324 33.6406,181.5918 Q34.2656,180.4355 35.3594,179.8262 Q36.4531,179.2012 37.6875,179.2012 Q38.4219,179.2012 39.0625,179.373 Q39.7188,179.5293 40.2656,179.8887 Z " fill="#000000"/><text fill="#000000" font-family="sans-serif" font-size="14" lengthAdjust="spacing" textLength="139.2959" x="51.5" y="189.8105">SendMoneyCommand</text><line style="stroke:#181818;stroke-width:0.5;" x1="23.5" x2="192.7959" y1="200.0137" y2="200.0137"/><line style="stroke:#181818;stroke-width:0.5;" x1="23.5" x2="192.7959" y1="208.0137" y2="208.0137"/></g><!--class service--><g id="elem_service"><rect codeLine="13" fill="#F1F1F1" height="48" id="service" rx="2.5" ry="2.5" style="stroke:#181818;stroke-width:0.5;" width="153.3994" x="250.5" y="43.0137"/><ellipse cx="265.5" cy="59.0137" fill="#ADD1B2" rx="11" ry="11" style="stroke:#181818;stroke-width:1.0;"/><path d="M268.2656,54.8887 Q268.4219,54.6699 268.6094,54.5605 Q268.7969,54.4512 269.0156,54.4512 Q269.3906,54.4512 269.625,54.7168 Q269.8594,54.9668 269.8594,55.5762 L269.8594,57.0293 Q269.8594,57.6387 269.625,57.9043 Q269.3906,58.1699 269.0156,58.1699 Q268.6719,58.1699 268.4688,57.9668 Q268.2656,57.7793 268.1563,57.2637 Q268.1094,56.9043 267.9219,56.7168 Q267.5938,56.3418 266.9844,56.123 Q266.375,55.9043 265.75,55.9043 Q264.9844,55.9043 264.3438,56.2324 Q263.7188,56.5605 263.2188,57.3105 Q262.7344,58.0605 262.7344,59.0918 L262.7344,60.1855 Q262.7344,61.4199 263.625,62.248 Q264.5156,63.0605 266.1094,63.0605 Q267.0469,63.0605 267.7031,62.8105 Q268.0938,62.6543 268.5156,62.2168 Q268.7813,61.9512 268.9219,61.873 Q269.0781,61.7949 269.2813,61.7949 Q269.6094,61.7949 269.8594,62.0605 Q270.125,62.3105 270.125,62.6543 Q270.125,62.998 269.7813,63.4043 Q269.2813,63.9824 268.4844,64.3105 Q267.4063,64.7637 266.1094,64.7637 Q264.5938,64.7637 263.3906,64.1387 Q262.4063,63.6387 261.7188,62.5762 Q261.0313,61.498 261.0313,60.2168 L261.0313,59.0605 Q261.0313,57.7324 261.6406,56.5918 Q262.2656,55.4355 263.3594,54.8262 Q264.4531,54.2012 265.6875,54.2012 Q266.4219,54.2012 267.0625,54.373 Q267.7188,54.5293 268.2656,54.8887 Z " fill="#000000"/><text fill="#000000" font-family="sans-serif" font-size="14" lengthAdjust="spacing" textLength="121.3994" x="279.5" y="64.8105">SendMoneyService</text><line style="stroke:#181818;stroke-width:0.5;" x1="251.5" x2="402.8994" y1="75.0137" y2="75.0137"/><line style="stroke:#181818;stroke-width:0.5;" x1="251.5" x2="402.8994" y1="83.0137" y2="83.0137"/></g><!--class account--><g id="elem_account"><rect codeLine="17" fill="#F1F1F1" height="48" id="account" rx="2.5" ry="2.5" style="stroke:#181818;stroke-width:0.5;" width="82.5859" x="285.5" y="168.0137"/><ellipse cx="300.5" cy="184.0137" fill="#ADD1B2" rx="11" ry="11" style="stroke:#181818;stroke-width:1.0;"/><path d="M303.2656,179.8887 Q303.4219,179.6699 303.6094,179.5605 Q303.7969,179.4512 304.0156,179.4512 Q304.3906,179.4512 304.625,179.7168 Q304.8594,179.9668 304.8594,180.5762 L304.8594,182.0293 Q304.8594,182.6387 304.625,182.9043 Q304.3906,183.1699 304.0156,183.1699 Q303.6719,183.1699 303.4688,182.9668 Q303.2656,182.7793 303.1563,182.2637 Q303.1094,181.9043 302.9219,181.7168 Q302.5938,181.3418 301.9844,181.123 Q301.375,180.9043 300.75,180.9043 Q299.9844,180.9043 299.3438,181.2324 Q298.7188,181.5605 298.2188,182.3105 Q297.7344,183.0605 297.7344,184.0918 L297.7344,185.1855 Q297.7344,186.4199 298.625,187.248 Q299.5156,188.0605 301.1094,188.0605 Q302.0469,188.0605 302.7031,187.8105 Q303.0938,187.6543 303.5156,187.2168 Q303.7813,186.9512 303.9219,186.873 Q304.0781,186.7949 304.2813,186.7949 Q304.6094,186.7949 304.8594,187.0605 Q305.125,187.3105 305.125,187.6543 Q305.125,187.998 304.7813,188.4043 Q304.2813,188.9824 303.4844,189.3105 Q302.4063,189.7637 301.1094,189.7637 Q299.5938,189.7637 298.3906,189.1387 Q297.4063,188.6387 296.7188,187.5762 Q296.0313,186.498 296.0313,185.2168 L296.0313,184.0605 Q296.0313,182.7324 296.6406,181.5918 Q297.2656,180.4355 298.3594,179.8262 Q299.4531,179.2012 300.6875,179.2012 Q301.4219,179.2012 302.0625,179.373 Q302.7188,179.5293 303.2656,179.8887 Z " fill="#000000"/><text fill="#000000" font-family="sans-serif" font-size="14" lengthAdjust="spacing" textLength="50.5859" x="314.5" y="189.8105">Account</text><line style="stroke:#181818;stroke-width:0.5;" x1="286.5" x2="367.0859" y1="200.0137" y2="200.0137"/><line style="stroke:#181818;stroke-width:0.5;" x1="286.5" x2="367.0859" y1="208.0137" y2="208.0137"/></g><!--class op--><g id="elem_op"><rect codeLine="21" fill="#F1F1F1" height="48" id="op" rx="2.5" ry="2.5" style="stroke:#181818;stroke-width:0.5;" width="186.0957" x="460" y="43.0137"/><ellipse cx="475" cy="59.0137" fill="#B4A7E5" rx="11" ry="11" style="stroke:#181818;stroke-width:1.0;"/><path d="M475.9531,55.6543 L475.9531,62.3105 L477.6719,62.3105 Q478.2813,62.3105 478.5469,62.5449 Q478.8125,62.7793 478.8125,63.1699 Q478.8125,63.5449 478.5469,63.7793 Q478.2813,64.0137 477.6719,64.0137 L472.5313,64.0137 Q471.9219,64.0137 471.6563,63.7793 Q471.3906,63.5449 471.3906,63.1543 Q471.3906,62.7793 471.6563,62.5449 Q471.9219,62.3105 472.5313,62.3105 L474.25,62.3105 L474.25,55.6543 L472.5313,55.6543 Q471.9219,55.6543 471.6563,55.4199 Q471.3906,55.1855 471.3906,54.7949 Q471.3906,54.4199 471.6563,54.1855 Q471.9219,53.9512 472.5313,53.9512 L477.6719,53.9512 Q478.2813,53.9512 478.5469,54.1855 Q478.8125,54.4199 478.8125,54.7949 Q478.8125,55.1855 478.5469,55.4199 Q478.2813,55.6543 477.6719,55.6543 L475.9531,55.6543 Z " fill="#000000"/><text fill="#000000" font-family="sans-serif" font-size="14" font-style="italic" lengthAdjust="spacing" textLength="154.0957" x="489" y="64.8105">UpdateAccountStatePort</text><line style="stroke:#181818;stroke-width:0.5;" x1="461" x2="645.0957" y1="75.0137" y2="75.0137"/><line style="stroke:#181818;stroke-width:0.5;" x1="461" x2="645.0957" y1="83.0137" y2="83.0137"/></g><!--reverse link usecase to command--><g id="link_usecase_command"><path codeLine="9" d="M109.5245,97.1529 C109.1745,119.1429 108.73,146.0237 108.37,167.9837 " fill="none" id="usecase-backto-command" style="stroke:#181818;stroke-width:1.0;stroke-dasharray:7.0,7.0;"/><polygon fill="#181818" points="109.62,91.1537,105.4773,100.0889,109.5404,96.153,113.4763,100.2162,109.62,91.1537" style="stroke:#181818;stroke-width:1.0;"/></g><!--reverse link usecase to service--><g id="link_usecase_service"><path codeLine="24" d="M198.22,67.0137 C217.61,67.0137 231.01,67.0137 250.4,67.0137 " fill="none" id="usecase-backto-service" style="stroke:#181818;stroke-width:1.0;"/><polygon fill="#181818" points="192.22,67.0137,201.22,71.0137,197.22,67.0137,201.22,63.0137,192.22,67.0137" style="stroke:#181818;stroke-width:1.0;"/></g><!--link service to account--><g id="link_service_account"><path codeLine="25" d="M327,91.1537 C327,113.1437 327,140.0237 327,161.9837 " fill="none" id="service-to-account" style="stroke:#181818;stroke-width:1.0;"/><polygon fill="#181818" points="327,167.9837,331,158.9837,327,162.9837,323,158.9837,327,167.9837" style="stroke:#181818;stroke-width:1.0;"/></g><!--link service to op--><g id="link_service_op"><path codeLine="26" d="M403.8,67.0137 C422.45,67.0137 435.1,67.0137 453.75,67.0137 " fill="none" id="service-to-op" style="stroke:#181818;stroke-width:1.0;"/><polygon fill="#181818" points="459.75,67.0137,450.75,63.0137,454.75,67.0137,450.75,71.0137,459.75,67.0137" style="stroke:#181818;stroke-width:1.0;"/></g><!--SRC=[TL3DQiGW4Bxx5EAbfvXxAOMovq8Xx0CCEfkLgYCwQIdBldkjYOHGTax3n_StytHbJkLv79E7o4lmsb0OZOTI1kjWpX24ACYoO88CJ5b6YYX40lC9Cqe5ANbdW1r5dIYpTb79cv1rN6JC5p0ebu862aeeKaqOxNlr-3aNF5LGDMwBb3KyGBH7tca5bMZ4RlMYTQUB-uC-1VENCzZxh1aRUCoODkR1obA0_PfL3SRG4hcftzPTFSnl_w25_p-4KdCu9mkCcy_4TV-eacROQmuUBpoyzhjttD9thFXMQCUpcwz_0ahY5m00]--></g></svg>