<svg xmlns="http://www.w3.org/2000/svg" xmlns:xlink="http://www.w3.org/1999/xlink" contentStyleType="text/css" height="277px" preserveAspectRatio="none" style="width:679px;height:277px;background:#FFFFFF;" version="1.1" viewBox="0 0 679 277" width="679px" zoomAndPan="magnify"><defs/><g><!--cluster adapter.in.web--><g id="cluster_adapter.in.web"><path d="M61.5,6.0137 L160.5205,6.0137 A3.75,3.75 0 0 1 163.0205,8.5137 L170.0205,30.6348 L256.5,30.6348 A2.5,2.5 0 0 1 259,33.1348 L259,187.5137 A2.5,2.5 0 0 1 256.5,190.0137 L61.5,190.0137 A2.5,2.5 0 0 1 59,187.5137 L59,8.5137 A2.5,2.5 0 0 1 61.5,6.0137 " fill="none" style="stroke:#000000;stroke-width:1.5;"/><line style="stroke:#000000;stroke-width:1.5;" x1="59" x2="170.0205" y1="30.6348" y2="30.6348"/><text fill="#000000" font-family="sans-serif" font-size="14" font-weight="bold" lengthAdjust="spacing" textLength="98.0205" x="63" y="23.1211">adapter.in.web</text></g><!--cluster application.port.in--><g id="cluster_application.port.in"><path d="M363.5,6.0137 L485.8311,6.0137 A3.75,3.75 0 0 1 488.3311,8.5137 L495.3311,30.6348 L495.5,30.6348 A2.5,2.5 0 0 1 498,33.1348 L498,104.5137 A2.5,2.5 0 0 1 495.5,107.0137 L363.5,107.0137 A2.5,2.5 0 0 1 361,104.5137 L361,8.5137 A2.5,2.5 0 0 1 363.5,6.0137 " fill="none" style="stroke:#000000;stroke-width:1.5;"/><line style="stroke:#000000;stroke-width:1.5;" x1="361" x2="495.3311" y1="30.6348" y2="30.6348"/><text fill="#000000" font-family="sans-serif" font-size="14" font-weight="bold" lengthAdjust="spacing" textLength="121.3311" x="365" y="23.1211">application.port.in</text></g><!--cluster application.port.out--><g id="cluster_application.port.out"><path d="M358.5,131.0137 L490.1553,131.0137 A3.75,3.75 0 0 1 492.6553,133.5137 L499.6553,155.6348 L499.5,155.6348 A2.5,2.5 0 0 1 502,158.1348 L502,229.5137 A2.5,2.5 0 0 1 499.5,232.0137 L358.5,232.0137 A2.5,2.5 0 0 1 356,229.5137 L356,133.5137 A2.5,2.5 0 0 1 358.5,131.0137 " fill="none" style="stroke:#000000;stroke-width:1.5;"/><line style="stroke:#000000;stroke-width:1.5;" x1="356" x2="499.6553" y1="155.6348" y2="155.6348"/><text fill="#000000" font-family="sans-serif" font-size="14" font-weight="bold" lengthAdjust="spacing" textLength="130.6553" x="360" y="148.1211">application.port.out</text></g><!--cluster application.service--><g id="cluster_application.service"><path d="M532.5,27.0137 L659.5547,27.0137 A3.75,3.75 0 0 1 662.0547,29.5137 L669.0547,51.6348 L669.5,51.6348 A2.5,2.5 0 0 1 672,54.1348 L672,208.5137 A2.5,2.5 0 0 1 669.5,211.0137 L532.5,211.0137 A2.5,2.5 0 0 1 530,208.5137 L530,29.5137 A2.5,2.5 0 0 1 532.5,27.0137 " fill="none" style="stroke:#000000;stroke-width:1.5;"/><line style="stroke:#000000;stroke-width:1.5;" x1="530" x2="669.0547" y1="51.6348" y2="51.6348"/><text fill="#000000" font-family="sans-serif" font-size="14" font-weight="bold" lengthAdjust="spacing" textLength="126.0547" x="534" y="44.1211">application.service</text></g><!--class con--><g id="elem_con"><rect codeLine="7" fill="#F1F1F1" height="48" id="con" rx="2.5" ry="2.5" style="stroke:#181818;stroke-width:0.5;" width="92.6895" x="112.5" y="43.0137"/><ellipse cx="127.5" cy="59.0137" fill="#ADD1B2" rx="11" ry="11" style="stroke:#181818;stroke-width:1.0;"/><path d="M130.2656,54.8887 Q130.4219,54.6699 130.6094,54.5605 Q130.7969,54.4512 131.0156,54.4512 Q131.3906,54.4512 131.625,54.7168 Q131.8594,54.9668 131.8594,55.5762 L131.8594,57.0293 Q131.8594,57.6387 131.625,57.9043 Q131.3906,58.1699 131.0156,58.1699 Q130.6719,58.1699 130.4688,57.9668 Q130.2656,57.7793 130.1563,57.2637 Q130.1094,56.9043 129.9219,56.7168 Q129.5938,56.3418 128.9844,56.123 Q128.375,55.9043 127.75,55.9043 Q126.9844,55.9043 126.3438,56.2324 Q125.7188,56.5605 125.2188,57.3105 Q124.7344,58.0605 124.7344,59.0918 L124.7344,60.1855 Q124.7344,61.4199 125.625,62.248 Q126.5156,63.0605 128.1094,63.0605 Q129.0469,63.0605 129.7031,62.8105 Q130.0938,62.6543 130.5156,62.2168 Q130.7813,61.9512 130.9219,61.873 Q131.0781,61.7949 131.2813,61.7949 Q131.6094,61.7949 131.8594,62.0605 Q132.125,62.3105 132.125,62.6543 Q132.125,62.998 131.7813,63.4043 Q131.2813,63.9824 130.4844,64.3105 Q129.4063,64.7637 128.1094,64.7637 Q126.5938,64.7637 125.3906,64.1387 Q124.4063,63.6387 123.7188,62.5762 Q123.0313,61.498 123.0313,60.2168 L123.0313,59.0605 Q123.0313,57.7324 123.6406,56.5918 Q124.2656,55.4355 125.3594,54.8262 Q126.4531,54.2012 127.6875,54.2012 Q128.4219,54.2012 129.0625,54.373 Q129.7188,54.5293 130.2656,54.8887 Z " fill="#000000"/><text fill="#000000" font-family="sans-serif" font-size="14" lengthAdjust="spacing" textLength="60.6895" x="141.5" y="64.8105">Controller</text><line style="stroke:#181818;stroke-width:0.5;" x1="113.5" x2="204.1895" y1="75.0137" y2="75.0137"/><line style="stroke:#181818;stroke-width:0.5;" x1="113.5" x2="204.1895" y1="83.0137" y2="83.0137"/></g><!--class ws_con--><g id="elem_ws_con"><rect codeLine="8" fill="#F1F1F1" height="48" id="ws_con" rx="2.5" ry="2.5" style="stroke:#181818;stroke-width:0.5;" width="168.165" x="75" y="126.0137"/><ellipse cx="90" cy="142.0137" fill="#ADD1B2" rx="11" ry="11" style="stroke:#181818;stroke-width:1.0;"/><path d="M92.7656,137.8887 Q92.9219,137.6699 93.1094,137.5605 Q93.2969,137.4512 93.5156,137.4512 Q93.8906,137.4512 94.125,137.7168 Q94.3594,137.9668 94.3594,138.5762 L94.3594,140.0293 Q94.3594,140.6387 94.125,140.9043 Q93.8906,141.1699 93.5156,141.1699 Q93.1719,141.1699 92.9688,140.9668 Q92.7656,140.7793 92.6563,140.2637 Q92.6094,139.9043 92.4219,139.7168 Q92.0938,139.3418 91.4844,139.123 Q90.875,138.9043 90.25,138.9043 Q89.4844,138.9043 88.8438,139.2324 Q88.2188,139.5605 87.7188,140.3105 Q87.2344,141.0605 87.2344,142.0918 L87.2344,143.1855 Q87.2344,144.4199 88.125,145.248 Q89.0156,146.0605 90.6094,146.0605 Q91.5469,146.0605 92.2031,145.8105 Q92.5938,145.6543 93.0156,145.2168 Q93.2813,144.9512 93.4219,144.873 Q93.5781,144.7949 93.7813,144.7949 Q94.1094,144.7949 94.3594,145.0605 Q94.625,145.3105 94.625,145.6543 Q94.625,145.998 94.2813,146.4043 Q93.7813,146.9824 92.9844,147.3105 Q91.9063,147.7637 90.6094,147.7637 Q89.0938,147.7637 87.8906,147.1387 Q86.9063,146.6387 86.2188,145.5762 Q85.5313,144.498 85.5313,143.2168 L85.5313,142.0605 Q85.5313,140.7324 86.1406,139.5918 Q86.7656,138.4355 87.8594,137.8262 Q88.9531,137.2012 90.1875,137.2012 Q90.9219,137.2012 91.5625,137.373 Q92.2188,137.5293 92.7656,137.8887 Z " fill="#000000"/><text fill="#000000" font-family="sans-serif" font-size="14" lengthAdjust="spacing" textLength="136.165" x="104" y="147.8105">WebSocket Controller</text><line style="stroke:#181818;stroke-width:0.5;" x1="76" x2="242.165" y1="158.0137" y2="158.0137"/><line style="stroke:#181818;stroke-width:0.5;" x1="76" x2="242.165" y1="166.0137" y2="166.0137"/></g><!--class ip--><g id="elem_ip"><rect codeLine="12" fill="#F1F1F1" height="48" id="ip" rx="2.5" ry="2.5" style="stroke:#181818;stroke-width:0.5;" width="57.6758" x="400" y="43.0137"/><ellipse cx="415" cy="59.0137" fill="#B4A7E5" rx="11" ry="11" style="stroke:#181818;stroke-width:1.0;"/><path d="M415.9531,55.6543 L415.9531,62.3105 L417.6719,62.3105 Q418.2813,62.3105 418.5469,62.5449 Q418.8125,62.7793 418.8125,63.1699 Q418.8125,63.5449 418.5469,63.7793 Q418.2813,64.0137 417.6719,64.0137 L412.5313,64.0137 Q411.9219,64.0137 411.6563,63.7793 Q411.3906,63.5449 411.3906,63.1543 Q411.3906,62.7793 411.6563,62.5449 Q411.9219,62.3105 412.5313,62.3105 L414.25,62.3105 L414.25,55.6543 L412.5313,55.6543 Q411.9219,55.6543 411.6563,55.4199 Q411.3906,55.1855 411.3906,54.7949 Q411.3906,54.4199 411.6563,54.1855 Q411.9219,53.9512 412.5313,53.9512 L417.6719,53.9512 Q418.2813,53.9512 418.5469,54.1855 Q418.8125,54.4199 418.8125,54.7949 Q418.8125,55.1855 418.5469,55.4199 Q418.2813,55.6543 417.6719,55.6543 L415.9531,55.6543 Z " fill="#000000"/><text fill="#FF6347" font-family="sans-serif" font-size="14" font-style="italic" lengthAdjust="spacing" textLength="25.6758" x="429" y="64.8105">Port</text><line style="stroke:#181818;stroke-width:0.5;" x1="401" x2="456.6758" y1="75.0137" y2="75.0137"/><line style="stroke:#181818;stroke-width:0.5;" x1="401" x2="456.6758" y1="83.0137" y2="83.0137"/></g><!--class op--><g id="elem_op"><rect codeLine="16" fill="#F1F1F1" height="48" id="op" rx="2.5" ry="2.5" style="stroke:#181818;stroke-width:0.5;" width="57.6758" x="400" y="168.0137"/><ellipse cx="415" cy="184.0137" fill="#B4A7E5" rx="11" ry="11" style="stroke:#181818;stroke-width:1.0;"/><path d="M415.9531,180.6543 L415.9531,187.3105 L417.6719,187.3105 Q418.2813,187.3105 418.5469,187.5449 Q418.8125,187.7793 418.8125,188.1699 Q418.8125,188.5449 418.5469,188.7793 Q418.2813,189.0137 417.6719,189.0137 L412.5313,189.0137 Q411.9219,189.0137 411.6563,188.7793 Q411.3906,188.5449 411.3906,188.1543 Q411.3906,187.7793 411.6563,187.5449 Q411.9219,187.3105 412.5313,187.3105 L414.25,187.3105 L414.25,180.6543 L412.5313,180.6543 Q411.9219,180.6543 411.6563,180.4199 Q411.3906,180.1855 411.3906,179.7949 Q411.3906,179.4199 411.6563,179.1855 Q411.9219,178.9512 412.5313,178.9512 L417.6719,178.9512 Q418.2813,178.9512 418.5469,179.1855 Q418.8125,179.4199 418.8125,179.7949 Q418.8125,180.1855 418.5469,180.4199 Q418.2813,180.6543 417.6719,180.6543 L415.9531,180.6543 Z " fill="#000000"/><text fill="#4169E1" font-family="sans-serif" font-size="14" font-style="italic" lengthAdjust="spacing" textLength="25.6758" x="429" y="189.8105">Port</text><line style="stroke:#181818;stroke-width:0.5;" x1="401" x2="456.6758" y1="200.0137" y2="200.0137"/><line style="stroke:#181818;stroke-width:0.5;" x1="401" x2="456.6758" y1="208.0137" y2="208.0137"/></g><!--class service1--><g id="elem_service1"><rect codeLine="20" fill="#F1F1F1" height="48" id="service1" rx="2.5" ry="2.5" style="stroke:#181818;stroke-width:0.5;" width="78.6826" x="561" y="64.0137"/><ellipse cx="576" cy="80.0137" fill="#ADD1B2" rx="11" ry="11" style="stroke:#181818;stroke-width:1.0;"/><path d="M578.7656,75.8887 Q578.9219,75.6699 579.1094,75.5605 Q579.2969,75.4512 579.5156,75.4512 Q579.8906,75.4512 580.125,75.7168 Q580.3594,75.9668 580.3594,76.5762 L580.3594,78.0293 Q580.3594,78.6387 580.125,78.9043 Q579.8906,79.1699 579.5156,79.1699 Q579.1719,79.1699 578.9688,78.9668 Q578.7656,78.7793 578.6563,78.2637 Q578.6094,77.9043 578.4219,77.7168 Q578.0938,77.3418 577.4844,77.123 Q576.875,76.9043 576.25,76.9043 Q575.4844,76.9043 574.8438,77.2324 Q574.2188,77.5605 573.7188,78.3105 Q573.2344,79.0605 573.2344,80.0918 L573.2344,81.1855 Q573.2344,82.4199 574.125,83.248 Q575.0156,84.0605 576.6094,84.0605 Q577.5469,84.0605 578.2031,83.8105 Q578.5938,83.6543 579.0156,83.2168 Q579.2813,82.9512 579.4219,82.873 Q579.5781,82.7949 579.7813,82.7949 Q580.1094,82.7949 580.3594,83.0605 Q580.625,83.3105 580.625,83.6543 Q580.625,83.998 580.2813,84.4043 Q579.7813,84.9824 578.9844,85.3105 Q577.9063,85.7637 576.6094,85.7637 Q575.0938,85.7637 573.8906,85.1387 Q572.9063,84.6387 572.2188,83.5762 Q571.5313,82.498 571.5313,81.2168 L571.5313,80.0605 Q571.5313,78.7324 572.1406,77.5918 Q572.7656,76.4355 573.8594,75.8262 Q574.9531,75.2012 576.1875,75.2012 Q576.9219,75.2012 577.5625,75.373 Q578.2188,75.5293 578.7656,75.8887 Z " fill="#000000"/><text fill="#000000" font-family="sans-serif" font-size="14" lengthAdjust="spacing" textLength="46.6826" x="590" y="85.8105">Service</text><line style="stroke:#181818;stroke-width:0.5;" x1="562" x2="638.6826" y1="96.0137" y2="96.0137"/><line style="stroke:#181818;stroke-width:0.5;" x1="562" x2="638.6826" y1="104.0137" y2="104.0137"/></g><!--class service2--><g id="elem_service2"><rect codeLine="21" fill="#F1F1F1" height="48" id="service2" rx="2.5" ry="2.5" style="stroke:#181818;stroke-width:0.5;" width="78.6826" x="561" y="147.0137"/><ellipse cx="576" cy="163.0137" fill="#ADD1B2" rx="11" ry="11" style="stroke:#181818;stroke-width:1.0;"/><path d="M578.7656,158.8887 Q578.9219,158.6699 579.1094,158.5605 Q579.2969,158.4512 579.5156,158.4512 Q579.8906,158.4512 580.125,158.7168 Q580.3594,158.9668 580.3594,159.5762 L580.3594,161.0293 Q580.3594,161.6387 580.125,161.9043 Q579.8906,162.1699 579.5156,162.1699 Q579.1719,162.1699 578.9688,161.9668 Q578.7656,161.7793 578.6563,161.2637 Q578.6094,160.9043 578.4219,160.7168 Q578.0938,160.3418 577.4844,160.123 Q576.875,159.9043 576.25,159.9043 Q575.4844,159.9043 574.8438,160.2324 Q574.2188,160.5605 573.7188,161.3105 Q573.2344,162.0605 573.2344,163.0918 L573.2344,164.1855 Q573.2344,165.4199 574.125,166.248 Q575.0156,167.0605 576.6094,167.0605 Q577.5469,167.0605 578.2031,166.8105 Q578.5938,166.6543 579.0156,166.2168 Q579.2813,165.9512 579.4219,165.873 Q579.5781,165.7949 579.7813,165.7949 Q580.1094,165.7949 580.3594,166.0605 Q580.625,166.3105 580.625,166.6543 Q580.625,166.998 580.2813,167.4043 Q579.7813,167.9824 578.9844,168.3105 Q577.9063,168.7637 576.6094,168.7637 Q575.0938,168.7637 573.8906,168.1387 Q572.9063,167.6387 572.2188,166.5762 Q571.5313,165.498 571.5313,164.2168 L571.5313,163.0605 Q571.5313,161.7324 572.1406,160.5918 Q572.7656,159.4355 573.8594,158.8262 Q574.9531,158.2012 576.1875,158.2012 Q576.9219,158.2012 577.5625,158.373 Q578.2188,158.5293 578.7656,158.8887 Z " fill="#000000"/><text fill="#000000" font-family="sans-serif" font-size="14" lengthAdjust="spacing" textLength="46.6826" x="590" y="168.8105">Service</text><line style="stroke:#181818;stroke-width:0.5;" x1="562" x2="638.6826" y1="179.0137" y2="179.0137"/><line style="stroke:#181818;stroke-width:0.5;" x1="562" x2="638.6826" y1="187.0137" y2="187.0137"/></g><g id="elem_N1"><path d="M6,209.0137 L6,270.8867 L311.6606,270.8867 L311.6606,219.0137 L301.6606,209.0137 L6,209.0137 " fill="#FEFFDD" style="stroke:#181818;stroke-width:0.5;"/><path d="M301.6606,209.0137 L301.6606,219.0137 L311.6606,219.0137 L301.6606,209.0137 " fill="#FEFFDD" style="stroke:#181818;stroke-width:1.0;"/><text fill="#000000" font-family="sans-serif" font-size="13" font-weight="bold" lengthAdjust="spacing" textLength="57.2368" x="12" y="228.042">&#51228;&#50612; &#55120;&#47492;</text><text fill="#000000" font-family="sans-serif" font-size="13" lengthAdjust="spacing" textLength="55.6118" x="72.8486" y="228.042">&#48169;&#54693; &#51452;&#51032;</text><text fill="#FF6347" font-family="sans-serif" font-size="13" lengthAdjust="spacing" textLength="80.2026" x="12" y="245.333">Incoming Port</text><text fill="#000000" font-family="sans-serif" font-size="13" lengthAdjust="spacing" textLength="204.4453" x="92.2026" y="245.333">&#50640;&#49436;&#45716; Controller -&gt; Port -&gt; Service</text><text fill="#4169E1" font-family="sans-serif" font-size="13" lengthAdjust="spacing" textLength="80.2153" x="12" y="262.624">Outgoing Port</text><text fill="#000000" font-family="sans-serif" font-size="13" lengthAdjust="spacing" textLength="204.4453" x="92.2153" y="262.624">&#50640;&#49436;&#45716; Service -&gt; Port -&gt; Controller</text></g><!--link con to ip--><g id="link_con_ip"><path codeLine="24" d="M205.77,67.0137 C261.38,67.0137 347.5,67.0137 393.71,67.0137 " fill="none" id="con-to-ip" style="stroke:#181818;stroke-width:1.0;"/><polygon fill="#181818" points="399.71,67.0137,390.71,63.0137,394.71,67.0137,390.71,71.0137,399.71,67.0137" style="stroke:#181818;stroke-width:1.0;"/></g><!--link ws_con to ip--><g id="link_ws_con_ip"><path codeLine="25" d="M243.14,128.1737 C265.59,121.9737 289.8,114.9937 312,108.0137 C342.16,98.5337 370.5918,88.3929 393.9518,79.7629 " fill="none" id="ws_con-to-ip" style="stroke:#181818;stroke-width:1.0;"/><polygon fill="#181818" points="399.58,77.6837,389.7515,77.0504,394.8898,79.4164,392.5239,84.5547,399.58,77.6837" style="stroke:#181818;stroke-width:1.0;"/></g><!--reverse link ip to service1--><g id="link_ip_service1"><path codeLine="26" d="M476.2333,72.7375 C504.3133,76.2175 529.66,79.3637 560.86,83.2237 " fill="none" id="ip-backto-service1" style="stroke:#181818;stroke-width:1.0;"/><polygon fill="none" points="458.37,70.5237,475.4954,78.692,476.9713,66.7831,458.37,70.5237" style="stroke:#181818;stroke-width:1.0;"/></g><!--link ws_con to op--><g id="link_ws_con_op"><path codeLine="28" d="M243.33,163.0737 C296.8,171.4537 345.1167,179.0291 381.9667,184.7991 " fill="none" id="ws_con-to-op" style="stroke:#181818;stroke-width:1.0;"/><polygon fill="none" points="399.75,187.5837,382.8949,178.8714,381.0385,190.7269,399.75,187.5837" style="stroke:#181818;stroke-width:1.0;"/></g><!--reverse link op to service2--><g id="link_op_service2"><path codeLine="29" d="M464.3244,187.7657 C492.4044,184.2857 529.66,179.6637 560.86,175.8037 " fill="none" id="op-backto-service2" style="stroke:#181818;stroke-width:1.0;"/><polygon fill="#181818" points="458.37,188.5037,467.7936,191.3664,463.332,187.8887,466.8097,183.4271,458.37,188.5037" style="stroke:#181818;stroke-width:1.0;"/></g><!--SRC=[VP8_JyCm4CLtVufJ69ZIY8vLb8M91P0O697Z7i72zLdEbJ-YR9sOEY1W00a9WSJ6mCWtQlWEE26bGHLaYUBtydjtBra_OdRb84cSaPR78zDJD4gKaMKP3xKil1m9KI93YKvwoUJ1aaLXy9212RmkZXY6sgDYJLO89zMnB10YEPIEqVUqxPrY7i65W70rP51aGPOGRP9bJyQWZphgQNcmCEnZlaVgEEHthPVT6EUCLh8Expdo7F8MMTg6_4Ef4BHhQBj1Zs2DyOm7JAEmpVye6lCgYrPPdiwboSqO_yILw4-qmjyjj8SR3M-lTQpg_TzwYAZRYUCih2NQhjgdi6SwYUCVibZgaonCBiBmwLBl2s69iUPlRpJ1QPvLZ_VLpJjyFipcBzCqoJEOlxr-tZn3zVHHFTnzsnGPycs7sPOD_uos1TITf4cZPTNjh9hUpw-kEryEmfIrfxwt-tHnFpLcEsCkw6zY-suNjmmHQ8VrLk8B]--></g></svg>