<svg xmlns="http://www.w3.org/2000/svg" xmlns:xlink="http://www.w3.org/1999/xlink" contentStyleType="text/css" height="498px" preserveAspectRatio="none" style="width:764px;height:498px;background:#FFFFFF;" version="1.1" viewBox="0 0 764 498" width="764px" zoomAndPan="magnify"><defs/><g><!--class AccountController--><g id="elem_AccountController"><rect codeLine="1" fill="#F1F1F1" height="66.6211" id="AccountController" rx="2.5" ry="2.5" style="stroke:#181818;stroke-width:0.5;" width="218.2197" x="240.5" y="7"/><ellipse cx="289.7222" cy="23" fill="#ADD1B2" rx="11" ry="11" style="stroke:#181818;stroke-width:1.0;"/><path d="M292.4878,18.875 Q292.644,18.6563 292.8315,18.5469 Q293.019,18.4375 293.2378,18.4375 Q293.6128,18.4375 293.8472,18.7031 Q294.0815,18.9531 294.0815,19.5625 L294.0815,21.0156 Q294.0815,21.625 293.8472,21.8906 Q293.6128,22.1563 293.2378,22.1563 Q292.894,22.1563 292.6909,21.9531 Q292.4878,21.7656 292.3784,21.25 Q292.3315,20.8906 292.144,20.7031 Q291.8159,20.3281 291.2065,20.1094 Q290.5972,19.8906 289.9722,19.8906 Q289.2065,19.8906 288.5659,20.2188 Q287.9409,20.5469 287.4409,21.2969 Q286.9565,22.0469 286.9565,23.0781 L286.9565,24.1719 Q286.9565,25.4063 287.8472,26.2344 Q288.7378,27.0469 290.3315,27.0469 Q291.269,27.0469 291.9253,26.7969 Q292.3159,26.6406 292.7378,26.2031 Q293.0034,25.9375 293.144,25.8594 Q293.3003,25.7813 293.5034,25.7813 Q293.8315,25.7813 294.0815,26.0469 Q294.3472,26.2969 294.3472,26.6406 Q294.3472,26.9844 294.0034,27.3906 Q293.5034,27.9688 292.7065,28.2969 Q291.6284,28.75 290.3315,28.75 Q288.8159,28.75 287.6128,28.125 Q286.6284,27.625 285.9409,26.5625 Q285.2534,25.4844 285.2534,24.2031 L285.2534,23.0469 Q285.2534,21.7188 285.8628,20.5781 Q286.4878,19.4219 287.5815,18.8125 Q288.6753,18.1875 289.9097,18.1875 Q290.644,18.1875 291.2847,18.3594 Q291.9409,18.5156 292.4878,18.875 Z " fill="#000000"/><text fill="#000000" font-family="sans-serif" font-size="14" lengthAdjust="spacing" textLength="111.2754" x="310.2222" y="28.7969">AccountController</text><line style="stroke:#181818;stroke-width:0.5;" x1="241.5" x2="457.7197" y1="39" y2="39"/><rect fill="none" height="6" style="stroke:#C82930;stroke-width:1.0;" width="6" x="248.5" y="50.8105"/><text fill="#000000" font-family="sans-serif" font-size="14" lengthAdjust="spacing" textLength="192.2197" x="260.5" y="58.1074">usecase: SendMoneyUseCase</text><line style="stroke:#181818;stroke-width:0.5;" x1="241.5" x2="457.7197" y1="65.6211" y2="65.6211"/></g><!--class SendMoneyUseCase--><g id="elem_SendMoneyUseCase"><rect codeLine="5" fill="#F1F1F1" height="66.6211" id="SendMoneyUseCase" rx="2.5" ry="2.5" style="stroke:#181818;stroke-width:0.5;" width="164.2959" x="8.5" y="298"/><ellipse cx="23.5" cy="314" fill="#B4A7E5" rx="11" ry="11" style="stroke:#181818;stroke-width:1.0;"/><path d="M24.4531,310.6406 L24.4531,317.2969 L26.1719,317.2969 Q26.7813,317.2969 27.0469,317.5313 Q27.3125,317.7656 27.3125,318.1563 Q27.3125,318.5313 27.0469,318.7656 Q26.7813,319 26.1719,319 L21.0313,319 Q20.4219,319 20.1563,318.7656 Q19.8906,318.5313 19.8906,318.1406 Q19.8906,317.7656 20.1563,317.5313 Q20.4219,317.2969 21.0313,317.2969 L22.75,317.2969 L22.75,310.6406 L21.0313,310.6406 Q20.4219,310.6406 20.1563,310.4063 Q19.8906,310.1719 19.8906,309.7813 Q19.8906,309.4063 20.1563,309.1719 Q20.4219,308.9375 21.0313,308.9375 L26.1719,308.9375 Q26.7813,308.9375 27.0469,309.1719 Q27.3125,309.4063 27.3125,309.7813 Q27.3125,310.1719 27.0469,310.4063 Q26.7813,310.6406 26.1719,310.6406 L24.4531,310.6406 Z " fill="#000000"/><text fill="#000000" font-family="sans-serif" font-size="14" font-style="italic" lengthAdjust="spacing" textLength="132.2959" x="37.5" y="319.7969">SendMoneyUseCase</text><line style="stroke:#181818;stroke-width:0.5;" x1="9.5" x2="171.7959" y1="330" y2="330"/><line style="stroke:#181818;stroke-width:0.5;" x1="9.5" x2="171.7959" y1="338" y2="338"/><ellipse cx="19.5" cy="352.8105" fill="#84BE84" rx="3" ry="3" style="stroke:#038048;stroke-width:1.0;"/><text fill="#000000" font-family="sans-serif" font-size="14" lengthAdjust="spacing" textLength="81.7031" x="28.5" y="357.1074">sendMoney()</text></g><!--class SendMoneyService--><g id="elem_SendMoneyService"><rect codeLine="9" fill="#F1F1F1" height="103.8633" id="SendMoneyService" rx="2.5" ry="2.5" style="stroke:#181818;stroke-width:0.5;" width="310.8467" x="194" y="134"/><ellipse cx="284.4736" cy="150" fill="#ADD1B2" rx="11" ry="11" style="stroke:#181818;stroke-width:1.0;"/><path d="M287.2393,145.875 Q287.3955,145.6563 287.583,145.5469 Q287.7705,145.4375 287.9893,145.4375 Q288.3643,145.4375 288.5986,145.7031 Q288.833,145.9531 288.833,146.5625 L288.833,148.0156 Q288.833,148.625 288.5986,148.8906 Q288.3643,149.1563 287.9893,149.1563 Q287.6455,149.1563 287.4424,148.9531 Q287.2393,148.7656 287.1299,148.25 Q287.083,147.8906 286.8955,147.7031 Q286.5674,147.3281 285.958,147.1094 Q285.3486,146.8906 284.7236,146.8906 Q283.958,146.8906 283.3174,147.2188 Q282.6924,147.5469 282.1924,148.2969 Q281.708,149.0469 281.708,150.0781 L281.708,151.1719 Q281.708,152.4063 282.5986,153.2344 Q283.4893,154.0469 285.083,154.0469 Q286.0205,154.0469 286.6768,153.7969 Q287.0674,153.6406 287.4893,153.2031 Q287.7549,152.9375 287.8955,152.8594 Q288.0518,152.7813 288.2549,152.7813 Q288.583,152.7813 288.833,153.0469 Q289.0986,153.2969 289.0986,153.6406 Q289.0986,153.9844 288.7549,154.3906 Q288.2549,154.9688 287.458,155.2969 Q286.3799,155.75 285.083,155.75 Q283.5674,155.75 282.3643,155.125 Q281.3799,154.625 280.6924,153.5625 Q280.0049,152.4844 280.0049,151.2031 L280.0049,150.0469 Q280.0049,148.7188 280.6143,147.5781 Q281.2393,146.4219 282.333,145.8125 Q283.4268,145.1875 284.6611,145.1875 Q285.3955,145.1875 286.0361,145.3594 Q286.6924,145.5156 287.2393,145.875 Z " fill="#000000"/><text fill="#000000" font-family="sans-serif" font-size="14" lengthAdjust="spacing" textLength="121.3994" x="304.9736" y="155.7969">SendMoneyService</text><line style="stroke:#181818;stroke-width:0.5;" x1="195" x2="503.8467" y1="166" y2="166"/><rect fill="none" height="6" style="stroke:#C82930;stroke-width:1.0;" width="6" x="202" y="177.8105"/><text fill="#000000" font-family="sans-serif" font-size="14" lengthAdjust="spacing" textLength="221.8057" x="214" y="185.1074">loadAccountPort : LoadAccountPort</text><rect fill="none" height="6" style="stroke:#C82930;stroke-width:1.0;" width="6" x="202" y="196.4316"/><text fill="#000000" font-family="sans-serif" font-size="14" lengthAdjust="spacing" textLength="284.8467" x="214" y="203.7285">updateAccountPort : UpdateAccountStatePort</text><line style="stroke:#181818;stroke-width:0.5;" x1="195" x2="503.8467" y1="211.2422" y2="211.2422"/><ellipse cx="205" cy="226.0527" fill="#84BE84" rx="3" ry="3" style="stroke:#038048;stroke-width:1.0;"/><text fill="#000000" font-family="sans-serif" font-size="14" lengthAdjust="spacing" textLength="81.7031" x="214" y="230.3496">sendMoney()</text></g><!--class LoadAccountPort--><g id="elem_LoadAccountPort"><rect codeLine="15" fill="#F1F1F1" height="66.6211" id="LoadAccountPort" rx="2.5" ry="2.5" style="stroke:#181818;stroke-width:0.5;" width="162.9717" x="7" y="425"/><ellipse cx="32.6044" cy="441" fill="#B4A7E5" rx="11" ry="11" style="stroke:#181818;stroke-width:1.0;"/><path d="M33.5576,437.6406 L33.5576,444.2969 L35.2763,444.2969 Q35.8857,444.2969 36.1513,444.5313 Q36.4169,444.7656 36.4169,445.1563 Q36.4169,445.5313 36.1513,445.7656 Q35.8857,446 35.2763,446 L30.1357,446 Q29.5263,446 29.2607,445.7656 Q28.9951,445.5313 28.9951,445.1406 Q28.9951,444.7656 29.2607,444.5313 Q29.5263,444.2969 30.1357,444.2969 L31.8544,444.2969 L31.8544,437.6406 L30.1357,437.6406 Q29.5263,437.6406 29.2607,437.4063 Q28.9951,437.1719 28.9951,436.7813 Q28.9951,436.4063 29.2607,436.1719 Q29.5263,435.9375 30.1357,435.9375 L35.2763,435.9375 Q35.8857,435.9375 36.1513,436.1719 Q36.4169,436.4063 36.4169,436.7813 Q36.4169,437.1719 36.1513,437.4063 Q35.8857,437.6406 35.2763,437.6406 L33.5576,437.6406 Z " fill="#000000"/><text fill="#000000" font-family="sans-serif" font-size="14" font-style="italic" lengthAdjust="spacing" textLength="107.4063" x="48.961" y="446.7969">LoadAccountPort</text><line style="stroke:#181818;stroke-width:0.5;" x1="8" x2="168.9717" y1="457" y2="457"/><line style="stroke:#181818;stroke-width:0.5;" x1="8" x2="168.9717" y1="465" y2="465"/><ellipse cx="18" cy="479.8105" fill="#84BE84" rx="3" ry="3" style="stroke:#038048;stroke-width:1.0;"/><text fill="#000000" font-family="sans-serif" font-size="14" lengthAdjust="spacing" textLength="136.9717" x="27" y="484.1074">loadAccountBalance()</text></g><!--class UpdateAccountStatePort--><g id="elem_UpdateAccountStatePort"><rect codeLine="19" fill="#F1F1F1" height="66.6211" id="UpdateAccountStatePort" rx="2.5" ry="2.5" style="stroke:#181818;stroke-width:0.5;" width="186.0957" x="205.5" y="425"/><ellipse cx="220.5" cy="441" fill="#B4A7E5" rx="11" ry="11" style="stroke:#181818;stroke-width:1.0;"/><path d="M221.4531,437.6406 L221.4531,444.2969 L223.1719,444.2969 Q223.7813,444.2969 224.0469,444.5313 Q224.3125,444.7656 224.3125,445.1563 Q224.3125,445.5313 224.0469,445.7656 Q223.7813,446 223.1719,446 L218.0313,446 Q217.4219,446 217.1563,445.7656 Q216.8906,445.5313 216.8906,445.1406 Q216.8906,444.7656 217.1563,444.5313 Q217.4219,444.2969 218.0313,444.2969 L219.75,444.2969 L219.75,437.6406 L218.0313,437.6406 Q217.4219,437.6406 217.1563,437.4063 Q216.8906,437.1719 216.8906,436.7813 Q216.8906,436.4063 217.1563,436.1719 Q217.4219,435.9375 218.0313,435.9375 L223.1719,435.9375 Q223.7813,435.9375 224.0469,436.1719 Q224.3125,436.4063 224.3125,436.7813 Q224.3125,437.1719 224.0469,437.4063 Q223.7813,437.6406 223.1719,437.6406 L221.4531,437.6406 Z " fill="#000000"/><text fill="#000000" font-family="sans-serif" font-size="14" font-style="italic" lengthAdjust="spacing" textLength="154.0957" x="234.5" y="446.7969">UpdateAccountStatePort</text><line style="stroke:#181818;stroke-width:0.5;" x1="206.5" x2="390.5957" y1="457" y2="457"/><line style="stroke:#181818;stroke-width:0.5;" x1="206.5" x2="390.5957" y1="465" y2="465"/><ellipse cx="216.5" cy="479.8105" fill="#84BE84" rx="3" ry="3" style="stroke:#038048;stroke-width:1.0;"/><text fill="#000000" font-family="sans-serif" font-size="14" lengthAdjust="spacing" textLength="153.3232" x="225.5" y="484.1074">updateAccountBalance()</text></g><!--class AccountPersistenceAdapter--><g id="elem_AccountPersistenceAdapter"><rect codeLine="23" fill="#F1F1F1" height="66.6211" id="AccountPersistenceAdapter" rx="2.5" ry="2.5" style="stroke:#181818;stroke-width:0.5;" width="282.792" x="208" y="298"/><ellipse cx="258.7637" cy="314" fill="#ADD1B2" rx="11" ry="11" style="stroke:#181818;stroke-width:1.0;"/><path d="M261.5293,309.875 Q261.6855,309.6563 261.873,309.5469 Q262.0605,309.4375 262.2793,309.4375 Q262.6543,309.4375 262.8887,309.7031 Q263.123,309.9531 263.123,310.5625 L263.123,312.0156 Q263.123,312.625 262.8887,312.8906 Q262.6543,313.1563 262.2793,313.1563 Q261.9355,313.1563 261.7324,312.9531 Q261.5293,312.7656 261.4199,312.25 Q261.373,311.8906 261.1855,311.7031 Q260.8574,311.3281 260.248,311.1094 Q259.6387,310.8906 259.0137,310.8906 Q258.248,310.8906 257.6074,311.2188 Q256.9824,311.5469 256.4824,312.2969 Q255.998,313.0469 255.998,314.0781 L255.998,315.1719 Q255.998,316.4063 256.8887,317.2344 Q257.7793,318.0469 259.373,318.0469 Q260.3105,318.0469 260.9668,317.7969 Q261.3574,317.6406 261.7793,317.2031 Q262.0449,316.9375 262.1855,316.8594 Q262.3418,316.7813 262.5449,316.7813 Q262.873,316.7813 263.123,317.0469 Q263.3887,317.2969 263.3887,317.6406 Q263.3887,317.9844 263.0449,318.3906 Q262.5449,318.9688 261.748,319.2969 Q260.6699,319.75 259.373,319.75 Q257.8574,319.75 256.6543,319.125 Q255.6699,318.625 254.9824,317.5625 Q254.2949,316.4844 254.2949,315.2031 L254.2949,314.0469 Q254.2949,312.7188 254.9043,311.5781 Q255.5293,310.4219 256.623,309.8125 Q257.7168,309.1875 258.9512,309.1875 Q259.6855,309.1875 260.3262,309.3594 Q260.9824,309.5156 261.5293,309.875 Z " fill="#000000"/><text fill="#000000" font-family="sans-serif" font-size="14" lengthAdjust="spacing" textLength="172.7646" x="279.2637" y="319.7969">AccountPersistenceAdapter</text><line style="stroke:#181818;stroke-width:0.5;" x1="209" x2="489.792" y1="330" y2="330"/><rect fill="none" height="6" style="stroke:#C82930;stroke-width:1.0;" width="6" x="216" y="341.8105"/><text fill="#000000" font-family="sans-serif" font-size="14" lengthAdjust="spacing" textLength="256.792" x="228" y="349.1074">repository: SpringDataAccountRepository</text><line style="stroke:#181818;stroke-width:0.5;" x1="209" x2="489.792" y1="356.6211" y2="356.6211"/></g><!--class SpringDataAccountRepository--><g id="elem_SpringDataAccountRepository"><rect codeLine="27" fill="#F1F1F1" height="48" id="SpringDataAccountRepository" rx="2.5" ry="2.5" style="stroke:#181818;stroke-width:0.5;" width="219.5439" x="426.5" y="434.5"/><ellipse cx="441.5" cy="450.5" fill="#B4A7E5" rx="11" ry="11" style="stroke:#181818;stroke-width:1.0;"/><path d="M442.4531,447.1406 L442.4531,453.7969 L444.1719,453.7969 Q444.7813,453.7969 445.0469,454.0313 Q445.3125,454.2656 445.3125,454.6563 Q445.3125,455.0313 445.0469,455.2656 Q444.7813,455.5 444.1719,455.5 L439.0313,455.5 Q438.4219,455.5 438.1563,455.2656 Q437.8906,455.0313 437.8906,454.6406 Q437.8906,454.2656 438.1563,454.0313 Q438.4219,453.7969 439.0313,453.7969 L440.75,453.7969 L440.75,447.1406 L439.0313,447.1406 Q438.4219,447.1406 438.1563,446.9063 Q437.8906,446.6719 437.8906,446.2813 Q437.8906,445.9063 438.1563,445.6719 Q438.4219,445.4375 439.0313,445.4375 L444.1719,445.4375 Q444.7813,445.4375 445.0469,445.6719 Q445.3125,445.9063 445.3125,446.2813 Q445.3125,446.6719 445.0469,446.9063 Q444.7813,447.1406 444.1719,447.1406 L442.4531,447.1406 Z " fill="#000000"/><text fill="#000000" font-family="sans-serif" font-size="14" font-style="italic" lengthAdjust="spacing" textLength="187.5439" x="455.5" y="456.2969">SpringDataAccountRepository</text><line style="stroke:#181818;stroke-width:0.5;" x1="427.5" x2="645.0439" y1="466.5" y2="466.5"/><line style="stroke:#181818;stroke-width:0.5;" x1="427.5" x2="645.0439" y1="474.5" y2="474.5"/></g><!--class Account--><g id="elem_Account"><rect codeLine="29" fill="#F1F1F1" height="66.6211" id="Account" rx="2.5" ry="2.5" style="stroke:#181818;stroke-width:0.5;" width="82.5859" x="627" y="298"/><ellipse cx="642" cy="314" fill="#ADD1B2" rx="11" ry="11" style="stroke:#181818;stroke-width:1.0;"/><path d="M644.7656,309.875 Q644.9219,309.6563 645.1094,309.5469 Q645.2969,309.4375 645.5156,309.4375 Q645.8906,309.4375 646.125,309.7031 Q646.3594,309.9531 646.3594,310.5625 L646.3594,312.0156 Q646.3594,312.625 646.125,312.8906 Q645.8906,313.1563 645.5156,313.1563 Q645.1719,313.1563 644.9688,312.9531 Q644.7656,312.7656 644.6563,312.25 Q644.6094,311.8906 644.4219,311.7031 Q644.0938,311.3281 643.4844,311.1094 Q642.875,310.8906 642.25,310.8906 Q641.4844,310.8906 640.8438,311.2188 Q640.2188,311.5469 639.7188,312.2969 Q639.2344,313.0469 639.2344,314.0781 L639.2344,315.1719 Q639.2344,316.4063 640.125,317.2344 Q641.0156,318.0469 642.6094,318.0469 Q643.5469,318.0469 644.2031,317.7969 Q644.5938,317.6406 645.0156,317.2031 Q645.2813,316.9375 645.4219,316.8594 Q645.5781,316.7813 645.7813,316.7813 Q646.1094,316.7813 646.3594,317.0469 Q646.625,317.2969 646.625,317.6406 Q646.625,317.9844 646.2813,318.3906 Q645.7813,318.9688 644.9844,319.2969 Q643.9063,319.75 642.6094,319.75 Q641.0938,319.75 639.8906,319.125 Q638.9063,318.625 638.2188,317.5625 Q637.5313,316.4844 637.5313,315.2031 L637.5313,314.0469 Q637.5313,312.7188 638.1406,311.5781 Q638.7656,310.4219 639.8594,309.8125 Q640.9531,309.1875 642.1875,309.1875 Q642.9219,309.1875 643.5625,309.3594 Q644.2188,309.5156 644.7656,309.875 Z " fill="#000000"/><text fill="#000000" font-family="sans-serif" font-size="14" lengthAdjust="spacing" textLength="50.5859" x="656" y="319.7969">Account</text><line style="stroke:#181818;stroke-width:0.5;" x1="628" x2="708.5859" y1="330" y2="330"/><rect fill="none" height="6" style="stroke:#C82930;stroke-width:1.0;" width="6" x="635" y="341.8105"/><text fill="#000000" font-family="sans-serif" font-size="14" lengthAdjust="spacing" textLength="44.3379" x="647" y="349.1074">Activity</text><line style="stroke:#181818;stroke-width:0.5;" x1="628" x2="708.5859" y1="356.6211" y2="356.6211"/></g><!--class Activity--><g id="elem_Activity"><rect codeLine="33" fill="#F1F1F1" height="48" id="Activity" rx="2.5" ry="2.5" style="stroke:#181818;stroke-width:0.5;" width="76.3379" x="681.5" y="434.5"/><ellipse cx="696.5" cy="450.5" fill="#ADD1B2" rx="11" ry="11" style="stroke:#181818;stroke-width:1.0;"/><path d="M699.2656,446.375 Q699.4219,446.1563 699.6094,446.0469 Q699.7969,445.9375 700.0156,445.9375 Q700.3906,445.9375 700.625,446.2031 Q700.8594,446.4531 700.8594,447.0625 L700.8594,448.5156 Q700.8594,449.125 700.625,449.3906 Q700.3906,449.6563 700.0156,449.6563 Q699.6719,449.6563 699.4688,449.4531 Q699.2656,449.2656 699.1563,448.75 Q699.1094,448.3906 698.9219,448.2031 Q698.5938,447.8281 697.9844,447.6094 Q697.375,447.3906 696.75,447.3906 Q695.9844,447.3906 695.3438,447.7188 Q694.7188,448.0469 694.2188,448.7969 Q693.7344,449.5469 693.7344,450.5781 L693.7344,451.6719 Q693.7344,452.9063 694.625,453.7344 Q695.5156,454.5469 697.1094,454.5469 Q698.0469,454.5469 698.7031,454.2969 Q699.0938,454.1406 699.5156,453.7031 Q699.7813,453.4375 699.9219,453.3594 Q700.0781,453.2813 700.2813,453.2813 Q700.6094,453.2813 700.8594,453.5469 Q701.125,453.7969 701.125,454.1406 Q701.125,454.4844 700.7813,454.8906 Q700.2813,455.4688 699.4844,455.7969 Q698.4063,456.25 697.1094,456.25 Q695.5938,456.25 694.3906,455.625 Q693.4063,455.125 692.7188,454.0625 Q692.0313,452.9844 692.0313,451.7031 L692.0313,450.5469 Q692.0313,449.2188 692.6406,448.0781 Q693.2656,446.9219 694.3594,446.3125 Q695.4531,445.6875 696.6875,445.6875 Q697.4219,445.6875 698.0625,445.8594 Q698.7188,446.0156 699.2656,446.375 Z " fill="#000000"/><text fill="#000000" font-family="sans-serif" font-size="14" lengthAdjust="spacing" textLength="44.3379" x="710.5" y="456.2969">Activity</text><line style="stroke:#181818;stroke-width:0.5;" x1="682.5" x2="756.8379" y1="466.5" y2="466.5"/><line style="stroke:#181818;stroke-width:0.5;" x1="682.5" x2="756.8379" y1="474.5" y2="474.5"/></g><!--link AccountPersistenceAdapter to SpringDataAccountRepository--><g id="link_AccountPersistenceAdapter_SpringDataAccountRepository"><path codeLine="35" d="M398.14,365.02 C430.72,386.79 467.8216,411.5959 496.9816,431.0859 " fill="none" id="AccountPersistenceAdapter-to-SpringDataAccountRepository" style="stroke:#181818;stroke-width:1.0;stroke-dasharray:7.0,7.0;"/><polygon fill="#181818" points="501.97,434.42,496.7102,426.0933,497.813,431.6416,492.2647,432.7444,501.97,434.42" style="stroke:#181818;stroke-width:1.0;"/></g><!--link AccountPersistenceAdapter to LoadAccountPort--><g id="link_AccountPersistenceAdapter_LoadAccountPort"><path codeLine="36" d="M281.61,365.02 C243.09,383.46 211.2731,398.6926 172.7431,417.1526 " fill="none" id="AccountPersistenceAdapter-to-LoadAccountPort" style="stroke:#181818;stroke-width:1.0;stroke-dasharray:7.0,7.0;"/><polygon fill="none" points="156.51,424.93,175.3355,422.5636,170.1506,411.7416,156.51,424.93" style="stroke:#181818;stroke-width:1.0;"/></g><!--link AccountPersistenceAdapter to UpdateAccountStatePort--><g id="link_AccountPersistenceAdapter_UpdateAccountStatePort"><path codeLine="37" d="M336.23,365.02 C328.74,383.39 326.1857,389.6221 318.6757,408.0421 " fill="none" id="AccountPersistenceAdapter-to-UpdateAccountStatePort" style="stroke:#181818;stroke-width:1.0;stroke-dasharray:7.0,7.0;"/><polygon fill="none" points="311.88,424.71,324.2316,410.3073,313.1197,405.7769,311.88,424.71" style="stroke:#181818;stroke-width:1.0;"/></g><!--link SendMoneyService to AccountPersistenceAdapter--><g id="link_SendMoneyService_AccountPersistenceAdapter"><path codeLine="39" d="M349.5,238.4 C349.5,258.19 349.5,274.22 349.5,291.77 " fill="none" id="SendMoneyService-to-AccountPersistenceAdapter" style="stroke:#181818;stroke-width:1.0;stroke-dasharray:7.0,7.0;"/><polygon fill="#181818" points="349.5,297.77,353.5,288.77,349.5,292.77,345.5,288.77,349.5,297.77" style="stroke:#181818;stroke-width:1.0;"/></g><!--link SendMoneyService to SendMoneyUseCase--><g id="link_SendMoneyService_SendMoneyUseCase"><path codeLine="40" d="M257.09,238.2 C221.21,258.08 196.926,271.5386 165.096,289.1686 " fill="none" id="SendMoneyService-to-SendMoneyUseCase" style="stroke:#181818;stroke-width:1.0;stroke-dasharray:7.0,7.0;"/><polygon fill="none" points="149.35,297.89,168.0032,294.4173,162.1889,283.9199,149.35,297.89" style="stroke:#181818;stroke-width:1.0;"/></g><!--link AccountController to SendMoneyService--><g id="link_AccountController_SendMoneyService"><path codeLine="42" d="M349.5,74.06 C349.5,91.76 349.5,108.04 349.5,127.99 " fill="none" id="AccountController-to-SendMoneyService" style="stroke:#181818;stroke-width:1.0;stroke-dasharray:7.0,7.0;"/><polygon fill="#181818" points="349.5,133.99,353.5,124.99,349.5,128.99,345.5,124.99,349.5,133.99" style="stroke:#181818;stroke-width:1.0;"/></g><!--link SendMoneyService to Account--><g id="link_SendMoneyService_Account"><path codeLine="44" d="M463.32,238.2 C520.22,263.8 580.1181,290.7385 621.4881,309.3485 " fill="none" id="SendMoneyService-to-Account" style="stroke:#181818;stroke-width:1.0;stroke-dasharray:7.0,7.0;"/><polygon fill="#181818" points="626.96,311.81,620.3932,304.4699,622.4001,309.7588,617.1112,311.7657,626.96,311.81" style="stroke:#181818;stroke-width:1.0;"/></g><!--link Account to Activity--><g id="link_Account_Activity"><path codeLine="45" d="M681.77,365.02 C690.62,386.72 699.7829,409.1848 707.7329,428.6648 " fill="none" id="Account-to-Activity" style="stroke:#181818;stroke-width:1.0;"/><polygon fill="#181818" points="710,434.22,710.3028,424.3758,708.1107,429.5907,702.8958,427.3986,710,434.22" style="stroke:#181818;stroke-width:1.0;"/></g><!--SRC=[XLFDQiCm3BxxANpSAEa3z138kkC6PQ4F81Hr68mTRBKGrhxxt99uTjnaFWNf-ujaemRlPODepuRtrh2pMfEJFqA6Kycp9mHFEzcIwJwjeU7eQHyguYQ4Capk14X5T-Hlf9yQBwzt1Zxi8hebTr58qKrRwCOi1-jOxkH7NfbIzHqmvSXZMcivV4T24UCl-4m_vawIl846WpHdFlUB0bd4J0BJaH_8UUMPGhVfeETaz8vwwnLRDuJfzqwPxtTW67bViJbRn0emTuu-3RAwA1xIR6D5BAVSRkjLipNcjIxs-WzyORcYk4dtM8jQp-11lBZQedmFZz-TiTVj9n5PLNMSw2y0]--></g></svg>