<svg xmlns="http://www.w3.org/2000/svg" xmlns:xlink="http://www.w3.org/1999/xlink" contentStyleType="text/css" height="296px" preserveAspectRatio="none" style="width:1111px;height:296px;background:#FFFFFF;" version="1.1" viewBox="0 0 1111 296" width="1111px" zoomAndPan="magnify"><defs/><g><g id="cluster_##2"><rect fill="none" height="177.22" rx="2.5" ry="2.5" style="stroke:#181818;stroke-width:1.0;stroke-dasharray:7.0,7.0;" width="168" x="7" y="113.6"/></g><g id="cluster_##6"><rect fill="none" height="185.2" rx="2.5" ry="2.5" style="stroke:#181818;stroke-width:1.0;stroke-dasharray:7.0,7.0;" width="658" x="199" y="105.62"/></g><g id="cluster_##13"><rect fill="none" height="177.22" rx="2.5" ry="2.5" style="stroke:#181818;stroke-width:1.0;stroke-dasharray:7.0,7.0;" width="224" x="881" y="113.6"/></g><g id="cluster_##17"><rect fill="none" height="70.62" rx="2.5" ry="2.5" style="stroke:#181818;stroke-width:1.0;stroke-dasharray:7.0,7.0;" width="102" x="464" y="7"/></g><!--entity ac--><g id="elem_ac"><rect fill="#F1F1F1" height="38.6211" rx="2.5" ry="2.5" style="stroke:#181818;stroke-width:0.5;" width="135.165" x="23.42" y="129.6"/><text fill="#000000" font-family="sans-serif" font-size="14" lengthAdjust="spacing" textLength="115.165" x="33.42" y="154.7074">Account Controller</text></g><!--entity wm--><g id="elem_wm"><rect fill="#F1F1F1" height="38.6211" rx="2.5" ry="2.5" style="stroke:#181818;stroke-width:0.5;" width="86.917" x="47.54" y="236.2"/><text fill="#000000" font-family="sans-serif" font-size="14" lengthAdjust="spacing" textLength="66.917" x="57.54" y="261.3074">WebModel</text></g><g id="elem_smuc"><ellipse cx="312.0016" cy="148.9072" fill="#F1F1F1" rx="97.1016" ry="27.2872" style="stroke:#181818;stroke-width:0.5;"/><text fill="#000000" font-family="sans-serif" font-size="14" font-style="italic" lengthAdjust="spacing" textLength="69.2686" x="270.779" y="142.1955">&#171;interface&#187;</text><text fill="#000000" font-family="sans-serif" font-size="14" lengthAdjust="spacing" textLength="132.2959" x="239.2654" y="160.8166">SendMoneyUseCase</text></g><!--entity smc--><g id="elem_smc"><rect fill="#F1F1F1" height="38.6211" rx="2.5" ry="2.5" style="stroke:#181818;stroke-width:0.5;" width="159.2959" x="232.35" y="236.2"/><text fill="#000000" font-family="sans-serif" font-size="14" lengthAdjust="spacing" textLength="139.2959" x="242.35" y="261.3074">SendMoneyCommand</text></g><!--entity sms--><g id="elem_sms"><rect fill="#F1F1F1" height="38.6211" rx="2.5" ry="2.5" style="stroke:#181818;stroke-width:0.5;" width="141.3994" x="444.3" y="129.6"/><text fill="#000000" font-family="sans-serif" font-size="14" lengthAdjust="spacing" textLength="121.3994" x="454.3" y="154.7074">SendMoneyService</text></g><g id="elem_uasp"><ellipse cx="731.0021" cy="148.912" fill="#F1F1F1" rx="110.4921" ry="27.102" style="stroke:#181818;stroke-width:0.5;"/><text fill="#000000" font-family="sans-serif" font-size="14" font-style="italic" lengthAdjust="spacing" textLength="69.2686" x="689.3576" y="141.8134">&#171;interface&#187;</text><text fill="#000000" font-family="sans-serif" font-size="14" lengthAdjust="spacing" textLength="154.0957" x="646.944" y="160.4345">UpdateAccountStatePort</text></g><!--entity uasc--><g id="elem_uasc"><rect fill="#F1F1F1" height="38.6211" rx="2.5" ry="2.5" style="stroke:#181818;stroke-width:0.5;" width="212.999" x="624.5" y="236.2"/><text fill="#000000" font-family="sans-serif" font-size="14" lengthAdjust="spacing" textLength="192.999" x="634.5" y="261.3074">UpdateAccountStateCommand</text></g><!--entity apa--><g id="elem_apa"><rect fill="#F1F1F1" height="38.6211" rx="2.5" ry="2.5" style="stroke:#181818;stroke-width:0.5;" width="192.7646" x="896.62" y="129.6"/><text fill="#000000" font-family="sans-serif" font-size="14" lengthAdjust="spacing" textLength="172.7646" x="906.62" y="154.7074">AccountPersistenceAdapter</text></g><!--entity pm--><g id="elem_pm"><rect fill="#F1F1F1" height="38.6211" rx="2.5" ry="2.5" style="stroke:#181818;stroke-width:0.5;" width="131.2754" x="927.36" y="236.2"/><text fill="#000000" font-family="sans-serif" font-size="14" lengthAdjust="spacing" textLength="111.2754" x="937.36" y="261.3074">PersistenceModel</text></g><!--entity acc--><g id="elem_acc"><rect fill="#F1F1F1" height="38.6211" rx="2.5" ry="2.5" style="stroke:#181818;stroke-width:0.5;" width="70.5859" x="479.71" y="23"/><text fill="#000000" font-family="sans-serif" font-size="14" lengthAdjust="spacing" textLength="50.5859" x="489.71" y="48.1074">Account</text></g><!--link ac to wm--><g id="link_ac_wm"><path d="M91,168.46 C91,187.58 91,210.53 91,229.72 " fill="none" id="ac-to-wm" style="stroke:#181818;stroke-width:1.0;"/><polygon fill="#181818" points="91,235.72,95,226.72,91,230.72,87,226.72,91,235.72" style="stroke:#181818;stroke-width:1.0;"/></g><!--link ac to smuc--><g id="link_ac_smuc"><path d="M158.81,148.91 C176.45,148.91 189.8,148.91 208.63,148.91 " fill="none" id="ac-to-smuc" style="stroke:#181818;stroke-width:1.0;"/><polygon fill="#181818" points="214.63,148.91,205.63,144.91,209.63,148.91,205.63,152.91,214.63,148.91" style="stroke:#181818;stroke-width:1.0;"/></g><!--reverse link smuc to sms--><g id="link_smuc_sms"><path d="M427.34,148.91 C439.04,148.91 432.82,148.91 444.04,148.91 " fill="none" id="smuc-backto-sms" style="stroke:#181818;stroke-width:1.0;"/><polygon fill="none" points="409.34,148.91,427.34,154.91,427.34,142.91,409.34,148.91" style="stroke:#181818;stroke-width:1.0;"/></g><!--link sms to uasp--><g id="link_sms_uasp"><path d="M586.03,148.91 C596.97,148.91 602.49,148.91 614.05,148.91 " fill="none" id="sms-to-uasp" style="stroke:#181818;stroke-width:1.0;"/><polygon fill="#181818" points="620.05,148.91,611.05,144.91,615.05,148.91,611.05,152.91,620.05,148.91" style="stroke:#181818;stroke-width:1.0;"/></g><!--link smuc to smc--><g id="link_smuc_smc"><path d="M312,176.64 C312,195.27 312,213.36 312,229.99 " fill="none" id="smuc-to-smc" style="stroke:#181818;stroke-width:1.0;"/><polygon fill="#181818" points="312,235.99,316,226.99,312,230.99,308,226.99,312,235.99" style="stroke:#181818;stroke-width:1.0;"/></g><!--reverse link acc to sms--><g id="link_acc_sms"><path d="M515,67.87 C515,86.98 515,109.93 515,129.12 " fill="none" id="acc-backto-sms" style="stroke:#181818;stroke-width:1.0;"/><polygon fill="#181818" points="515,61.87,511,70.87,515,66.87,519,70.87,515,61.87" style="stroke:#181818;stroke-width:1.0;"/></g><!--link uasp to uasc--><g id="link_uasp_uasc"><path d="M731,176.36 C731,194.99 731,213.18 731,229.89 " fill="none" id="uasp-to-uasc" style="stroke:#181818;stroke-width:1.0;"/><polygon fill="#181818" points="731,235.89,735,226.89,731,230.89,727,226.89,731,235.89" style="stroke:#181818;stroke-width:1.0;"/></g><!--reverse link uasp to apa--><g id="link_uasp_apa"><path d="M859.73,148.91 C877.89,148.91 878.58,148.91 896.36,148.91 " fill="none" id="uasp-backto-apa" style="stroke:#181818;stroke-width:1.0;"/><polygon fill="none" points="841.73,148.91,859.73,154.91,859.73,142.91,841.73,148.91" style="stroke:#181818;stroke-width:1.0;"/></g><!--link apa to pm--><g id="link_apa_pm"><path d="M993,168.46 C993,187.58 993,210.53 993,229.72 " fill="none" id="apa-to-pm" style="stroke:#181818;stroke-width:1.0;"/><polygon fill="#181818" points="993,235.72,997,226.72,993,230.72,989,226.72,993,235.72" style="stroke:#181818;stroke-width:1.0;"/></g><!--SRC=[ZP7BQiCm44Nt-Wf15sqNZlV564BMWO09MPGifj8q4TKBQTmIslvxzN1IqnPIWyJ8v_fgvlhsIEJZGzjw3PP6enV2cJOjxonQQgI2Gm33M7nHraCg-GKETDB80me2Uz0uasXbaKuUkGjqT8onYuZVPBQG48ye-JlZwNbS2k56ItpbB0MdDOOzXyX1LBp3fxMJgClBDyC-h_ZT3MZbEhLusaPSGSHxtdNA4ePd4DZtsIQQSNA_Y5VE6B1oN_5FEc1uLG8d6kj5Mo-1S6f_e5HlqiH_N3T2zDNmzoVpUvDEN9tldDS6GrIHq0fSIl1qZir3bStuTtxU_Dj_-Wcb8GQ2DqsVuozbNnFC6-y-cX99MXcKMIjfYavKClfqodPPK52PjXwpHswSfQsmrESN]--></g></svg>