<svg xmlns="http://www.w3.org/2000/svg" xmlns:xlink="http://www.w3.org/1999/xlink" contentStyleType="text/css" height="198px" preserveAspectRatio="none" style="width:1111px;height:198px;background:#FFFFFF;" version="1.1" viewBox="0 0 1111 198" width="1111px" zoomAndPan="magnify"><defs/><g><g id="cluster_##2"><rect fill="none" height="177.22" rx="2.5" ry="2.5" style="stroke:#181818;stroke-width:1.0;stroke-dasharray:7.0,7.0;" width="168" x="7" y="14.98"/></g><g id="cluster_##6"><rect fill="none" height="86.58" rx="2.5" ry="2.5" style="stroke:#181818;stroke-width:1.0;stroke-dasharray:7.0,7.0;" width="658" x="199" y="7"/></g><g id="cluster_##11"><rect fill="none" height="177.22" rx="2.5" ry="2.5" style="stroke:#181818;stroke-width:1.0;stroke-dasharray:7.0,7.0;" width="224" x="881" y="14.98"/></g><g id="cluster_##15"><rect fill="none" height="70.62" rx="2.5" ry="2.5" style="stroke:#181818;stroke-width:1.0;stroke-dasharray:7.0,7.0;" width="102" x="464" y="121.58"/></g><!--entity ac--><g id="elem_ac"><rect fill="#F1F1F1" height="38.6211" rx="2.5" ry="2.5" style="stroke:#181818;stroke-width:0.5;" width="135.165" x="23.42" y="30.98"/><text fill="#000000" font-family="sans-serif" font-size="14" lengthAdjust="spacing" textLength="115.165" x="33.42" y="56.0874">Account Controller</text></g><!--entity wm--><g id="elem_wm"><rect fill="#F1F1F1" height="38.6211" rx="2.5" ry="2.5" style="stroke:#181818;stroke-width:0.5;" width="86.917" x="47.54" y="137.58"/><text fill="#000000" font-family="sans-serif" font-size="14" lengthAdjust="spacing" textLength="66.917" x="57.54" y="162.6874">WebModel</text></g><g id="elem_smuc"><ellipse cx="312.0016" cy="50.2872" fill="#F1F1F1" rx="97.1016" ry="27.2872" style="stroke:#181818;stroke-width:0.5;"/><text fill="#000000" font-family="sans-serif" font-size="14" font-style="italic" lengthAdjust="spacing" textLength="69.2686" x="270.779" y="43.5755">&#171;interface&#187;</text><text fill="#000000" font-family="sans-serif" font-size="14" lengthAdjust="spacing" textLength="132.2959" x="239.2654" y="62.1966">SendMoneyUseCase</text></g><!--entity sms--><g id="elem_sms"><rect fill="#F1F1F1" height="38.6211" rx="2.5" ry="2.5" style="stroke:#181818;stroke-width:0.5;" width="141.3994" x="444.3" y="30.98"/><text fill="#000000" font-family="sans-serif" font-size="14" lengthAdjust="spacing" textLength="121.3994" x="454.3" y="56.0874">SendMoneyService</text></g><g id="elem_uasp"><ellipse cx="731.0021" cy="50.292" fill="#F1F1F1" rx="110.4921" ry="27.102" style="stroke:#181818;stroke-width:0.5;"/><text fill="#000000" font-family="sans-serif" font-size="14" font-style="italic" lengthAdjust="spacing" textLength="69.2686" x="689.3576" y="43.1934">&#171;interface&#187;</text><text fill="#000000" font-family="sans-serif" font-size="14" lengthAdjust="spacing" textLength="154.0957" x="646.944" y="61.8145">UpdateAccountStatePort</text></g><!--entity apa--><g id="elem_apa"><rect fill="#F1F1F1" height="38.6211" rx="2.5" ry="2.5" style="stroke:#181818;stroke-width:0.5;" width="192.7646" x="896.62" y="30.98"/><text fill="#000000" font-family="sans-serif" font-size="14" lengthAdjust="spacing" textLength="172.7646" x="906.62" y="56.0874">AccountPersistenceAdapter</text></g><!--entity pm--><g id="elem_pm"><rect fill="#F1F1F1" height="38.6211" rx="2.5" ry="2.5" style="stroke:#181818;stroke-width:0.5;" width="131.2754" x="927.36" y="137.58"/><text fill="#000000" font-family="sans-serif" font-size="14" lengthAdjust="spacing" textLength="111.2754" x="937.36" y="162.6874">PersistenceModel</text></g><!--entity acc--><g id="elem_acc"><rect fill="#F1F1F1" height="38.6211" rx="2.5" ry="2.5" style="stroke:#181818;stroke-width:0.5;" width="70.5859" x="479.71" y="137.58"/><text fill="#000000" font-family="sans-serif" font-size="14" lengthAdjust="spacing" textLength="50.5859" x="489.71" y="162.6874">Account</text></g><!--link ac to wm--><g id="link_ac_wm"><path d="M91,69.84 C91,88.96 91,111.91 91,131.1 " fill="none" id="ac-to-wm" style="stroke:#181818;stroke-width:1.0;"/><polygon fill="#181818" points="91,137.1,95,128.1,91,132.1,87,128.1,91,137.1" style="stroke:#181818;stroke-width:1.0;"/></g><!--link ac to smuc--><g id="link_ac_smuc"><path d="M158.81,50.29 C176.45,50.29 189.8,50.29 208.63,50.29 " fill="none" id="ac-to-smuc" style="stroke:#181818;stroke-width:1.0;"/><polygon fill="#181818" points="214.63,50.29,205.63,46.29,209.63,50.29,205.63,54.29,214.63,50.29" style="stroke:#181818;stroke-width:1.0;"/></g><!--reverse link smuc to sms--><g id="link_smuc_sms"><path d="M427.34,50.29 C439.04,50.29 432.82,50.29 444.04,50.29 " fill="none" id="smuc-backto-sms" style="stroke:#181818;stroke-width:1.0;"/><polygon fill="none" points="409.34,50.29,427.34,56.29,427.34,44.29,409.34,50.29" style="stroke:#181818;stroke-width:1.0;"/></g><!--link sms to uasp--><g id="link_sms_uasp"><path d="M586.03,50.29 C596.97,50.29 602.49,50.29 614.05,50.29 " fill="none" id="sms-to-uasp" style="stroke:#181818;stroke-width:1.0;"/><polygon fill="#181818" points="620.05,50.29,611.05,46.29,615.05,50.29,611.05,54.29,620.05,50.29" style="stroke:#181818;stroke-width:1.0;"/></g><!--link smuc to acc--><g id="link_smuc_acc"><path d="M357.82,74.8 C412.71,74.8 497.35,74.8 497.35,74.8 C497.35,74.8 497.35,107.16 497.35,131.43 " fill="none" id="smuc-to-acc" style="stroke:#181818;stroke-width:1.0;"/><polygon fill="#181818" points="497.35,137.43,501.35,128.43,497.35,132.43,493.35,128.43,497.35,137.43" style="stroke:#181818;stroke-width:1.0;"/></g><!--link sms to acc--><g id="link_sms_acc"><path d="M515,69.84 C515,88.96 515,111.91 515,131.1 " fill="none" id="sms-to-acc" style="stroke:#181818;stroke-width:1.0;"/><polygon fill="#181818" points="515,137.1,519,128.1,515,132.1,511,128.1,515,137.1" style="stroke:#181818;stroke-width:1.0;"/></g><!--link uasp to acc--><g id="link_uasp_acc"><path d="M663.57,72.2 C606.07,72.2 532.65,72.2 532.65,72.2 C532.65,72.2 532.65,106.23 532.65,131.25 " fill="none" id="uasp-to-acc" style="stroke:#181818;stroke-width:1.0;"/><polygon fill="#181818" points="532.65,137.25,536.65,128.25,532.65,132.25,528.65,128.25,532.65,137.25" style="stroke:#181818;stroke-width:1.0;"/></g><!--reverse link uasp to apa--><g id="link_uasp_apa"><path d="M859.73,50.29 C877.89,50.29 878.58,50.29 896.36,50.29 " fill="none" id="uasp-backto-apa" style="stroke:#181818;stroke-width:1.0;"/><polygon fill="none" points="841.73,50.29,859.73,56.29,859.73,44.29,841.73,50.29" style="stroke:#181818;stroke-width:1.0;"/></g><!--link apa to pm--><g id="link_apa_pm"><path d="M993,69.84 C993,88.96 993,111.91 993,131.1 " fill="none" id="apa-to-pm" style="stroke:#181818;stroke-width:1.0;"/><polygon fill="#181818" points="993,137.1,997,128.1,993,132.1,989,128.1,993,137.1" style="stroke:#181818;stroke-width:1.0;"/></g><!--SRC=[ZP1DImCn48Rl-HK13-fXktSf2wNdGc4fFKWFOp9sW_aYcLKMzR-RZ-tQWr032PCyCo_lc_k1oCUdjlKQB8r6huGpRThUMRJKI0Nd08Qn-AQiXrJo1VOqQUG11O4zQxngqSeYJHwv2pGunjZInEyoMqc80qh-oNXQpniXt6Y9RvsbuBJ6SE8GEOYAZ_YoSn9rUVmmxFk6taEFLkwInUaGSGiH7_bwhInXU0M1NPTbeXbdzQMvn_2k19ugZbNgu2KGpWPxIlK-PVf3S8JeRpgx9DrZY2eIMe4R2PukWJtKjYl-czoRV-lFtoVo00F1cwRB7rVAhcRF1rz_DILgsXcK39NaYInGo5ndl5pgBGjaromT1IMJFm00]--></g></svg>