<svg xmlns="http://www.w3.org/2000/svg" xmlns:xlink="http://www.w3.org/1999/xlink" contentStyleType="text/css" height="280px" preserveAspectRatio="none" style="width:473px;height:280px;background:#FFFFFF;" version="1.1" viewBox="0 0 473 280" width="473px" zoomAndPan="magnify"><defs/><g><!--cluster adapter.in.web--><g id="cluster_adapter.in.web"><path d="M8.5,6.0137 L107.5205,6.0137 A3.75,3.75 0 0 1 110.0205,8.5137 L117.0205,30.6348 L128.5,30.6348 A2.5,2.5 0 0 1 131,33.1348 L131,187.5137 A2.5,2.5 0 0 1 128.5,190.0137 L8.5,190.0137 A2.5,2.5 0 0 1 6,187.5137 L6,8.5137 A2.5,2.5 0 0 1 8.5,6.0137 " fill="none" style="stroke:#000000;stroke-width:1.5;"/><line style="stroke:#000000;stroke-width:1.5;" x1="6" x2="117.0205" y1="30.6348" y2="30.6348"/><text fill="#000000" font-family="sans-serif" font-size="14" font-weight="bold" lengthAdjust="spacing" textLength="98.0205" x="10" y="23.1211">adapter.in.web</text></g><!--cluster application.port.in--><g id="cluster_application.port.in"><path d="M161.5,6.0137 L283.8311,6.0137 A3.75,3.75 0 0 1 286.3311,8.5137 L293.3311,30.6348 L293.5,30.6348 A2.5,2.5 0 0 1 296,33.1348 L296,270.5137 A2.5,2.5 0 0 1 293.5,273.0137 L161.5,273.0137 A2.5,2.5 0 0 1 159,270.5137 L159,8.5137 A2.5,2.5 0 0 1 161.5,6.0137 " fill="none" style="stroke:#000000;stroke-width:1.5;"/><line style="stroke:#000000;stroke-width:1.5;" x1="159" x2="293.3311" y1="30.6348" y2="30.6348"/><text fill="#000000" font-family="sans-serif" font-size="14" font-weight="bold" lengthAdjust="spacing" textLength="121.3311" x="163" y="23.1211">application.port.in</text></g><!--cluster application.service--><g id="cluster_application.service"><path d="M326.5,89.0137 L453.5547,89.0137 A3.75,3.75 0 0 1 456.0547,91.5137 L463.0547,113.6348 L463.5,113.6348 A2.5,2.5 0 0 1 466,116.1348 L466,270.5137 A2.5,2.5 0 0 1 463.5,273.0137 L326.5,273.0137 A2.5,2.5 0 0 1 324,270.5137 L324,91.5137 A2.5,2.5 0 0 1 326.5,89.0137 " fill="none" style="stroke:#000000;stroke-width:1.5;"/><line style="stroke:#000000;stroke-width:1.5;" x1="324" x2="463.0547" y1="113.6348" y2="113.6348"/><text fill="#000000" font-family="sans-serif" font-size="14" font-weight="bold" lengthAdjust="spacing" textLength="126.0547" x="328" y="106.1211">application.service</text></g><!--class con1--><g id="elem_con1"><rect codeLine="7" fill="#F1F1F1" height="48" id="con1" rx="2.5" ry="2.5" style="stroke:#181818;stroke-width:0.5;" width="92.6895" x="22" y="43.0137"/><ellipse cx="37" cy="59.0137" fill="#ADD1B2" rx="11" ry="11" style="stroke:#181818;stroke-width:1.0;"/><path d="M39.7656,54.8887 Q39.9219,54.6699 40.1094,54.5605 Q40.2969,54.4512 40.5156,54.4512 Q40.8906,54.4512 41.125,54.7168 Q41.3594,54.9668 41.3594,55.5762 L41.3594,57.0293 Q41.3594,57.6387 41.125,57.9043 Q40.8906,58.1699 40.5156,58.1699 Q40.1719,58.1699 39.9688,57.9668 Q39.7656,57.7793 39.6563,57.2637 Q39.6094,56.9043 39.4219,56.7168 Q39.0938,56.3418 38.4844,56.123 Q37.875,55.9043 37.25,55.9043 Q36.4844,55.9043 35.8438,56.2324 Q35.2188,56.5605 34.7188,57.3105 Q34.2344,58.0605 34.2344,59.0918 L34.2344,60.1855 Q34.2344,61.4199 35.125,62.248 Q36.0156,63.0605 37.6094,63.0605 Q38.5469,63.0605 39.2031,62.8105 Q39.5938,62.6543 40.0156,62.2168 Q40.2813,61.9512 40.4219,61.873 Q40.5781,61.7949 40.7813,61.7949 Q41.1094,61.7949 41.3594,62.0605 Q41.625,62.3105 41.625,62.6543 Q41.625,62.998 41.2813,63.4043 Q40.7813,63.9824 39.9844,64.3105 Q38.9063,64.7637 37.6094,64.7637 Q36.0938,64.7637 34.8906,64.1387 Q33.9063,63.6387 33.2188,62.5762 Q32.5313,61.498 32.5313,60.2168 L32.5313,59.0605 Q32.5313,57.7324 33.1406,56.5918 Q33.7656,55.4355 34.8594,54.8262 Q35.9531,54.2012 37.1875,54.2012 Q37.9219,54.2012 38.5625,54.373 Q39.2188,54.5293 39.7656,54.8887 Z " fill="#000000"/><text fill="#000000" font-family="sans-serif" font-size="14" lengthAdjust="spacing" textLength="60.6895" x="51" y="64.8105">Controller</text><line style="stroke:#181818;stroke-width:0.5;" x1="23" x2="113.6895" y1="75.0137" y2="75.0137"/><line style="stroke:#181818;stroke-width:0.5;" x1="23" x2="113.6895" y1="83.0137" y2="83.0137"/></g><!--class con2--><g id="elem_con2"><rect codeLine="8" fill="#F1F1F1" height="48" id="con2" rx="2.5" ry="2.5" style="stroke:#181818;stroke-width:0.5;" width="92.6895" x="22" y="126.0137"/><ellipse cx="37" cy="142.0137" fill="#ADD1B2" rx="11" ry="11" style="stroke:#181818;stroke-width:1.0;"/><path d="M39.7656,137.8887 Q39.9219,137.6699 40.1094,137.5605 Q40.2969,137.4512 40.5156,137.4512 Q40.8906,137.4512 41.125,137.7168 Q41.3594,137.9668 41.3594,138.5762 L41.3594,140.0293 Q41.3594,140.6387 41.125,140.9043 Q40.8906,141.1699 40.5156,141.1699 Q40.1719,141.1699 39.9688,140.9668 Q39.7656,140.7793 39.6563,140.2637 Q39.6094,139.9043 39.4219,139.7168 Q39.0938,139.3418 38.4844,139.123 Q37.875,138.9043 37.25,138.9043 Q36.4844,138.9043 35.8438,139.2324 Q35.2188,139.5605 34.7188,140.3105 Q34.2344,141.0605 34.2344,142.0918 L34.2344,143.1855 Q34.2344,144.4199 35.125,145.248 Q36.0156,146.0605 37.6094,146.0605 Q38.5469,146.0605 39.2031,145.8105 Q39.5938,145.6543 40.0156,145.2168 Q40.2813,144.9512 40.4219,144.873 Q40.5781,144.7949 40.7813,144.7949 Q41.1094,144.7949 41.3594,145.0605 Q41.625,145.3105 41.625,145.6543 Q41.625,145.998 41.2813,146.4043 Q40.7813,146.9824 39.9844,147.3105 Q38.9063,147.7637 37.6094,147.7637 Q36.0938,147.7637 34.8906,147.1387 Q33.9063,146.6387 33.2188,145.5762 Q32.5313,144.498 32.5313,143.2168 L32.5313,142.0605 Q32.5313,140.7324 33.1406,139.5918 Q33.7656,138.4355 34.8594,137.8262 Q35.9531,137.2012 37.1875,137.2012 Q37.9219,137.2012 38.5625,137.373 Q39.2188,137.5293 39.7656,137.8887 Z " fill="#000000"/><text fill="#000000" font-family="sans-serif" font-size="14" lengthAdjust="spacing" textLength="60.6895" x="51" y="147.8105">Controller</text><line style="stroke:#181818;stroke-width:0.5;" x1="23" x2="113.6895" y1="158.0137" y2="158.0137"/><line style="stroke:#181818;stroke-width:0.5;" x1="23" x2="113.6895" y1="166.0137" y2="166.0137"/></g><!--class port1--><g id="elem_port1"><rect codeLine="12" fill="#F1F1F1" height="48" id="port1" rx="2.5" ry="2.5" style="stroke:#181818;stroke-width:0.5;" width="57.6758" x="198" y="43.0137"/><ellipse cx="213" cy="59.0137" fill="#B4A7E5" rx="11" ry="11" style="stroke:#181818;stroke-width:1.0;"/><path d="M213.9531,55.6543 L213.9531,62.3105 L215.6719,62.3105 Q216.2813,62.3105 216.5469,62.5449 Q216.8125,62.7793 216.8125,63.1699 Q216.8125,63.5449 216.5469,63.7793 Q216.2813,64.0137 215.6719,64.0137 L210.5313,64.0137 Q209.9219,64.0137 209.6563,63.7793 Q209.3906,63.5449 209.3906,63.1543 Q209.3906,62.7793 209.6563,62.5449 Q209.9219,62.3105 210.5313,62.3105 L212.25,62.3105 L212.25,55.6543 L210.5313,55.6543 Q209.9219,55.6543 209.6563,55.4199 Q209.3906,55.1855 209.3906,54.7949 Q209.3906,54.4199 209.6563,54.1855 Q209.9219,53.9512 210.5313,53.9512 L215.6719,53.9512 Q216.2813,53.9512 216.5469,54.1855 Q216.8125,54.4199 216.8125,54.7949 Q216.8125,55.1855 216.5469,55.4199 Q216.2813,55.6543 215.6719,55.6543 L213.9531,55.6543 Z " fill="#000000"/><text fill="#000000" font-family="sans-serif" font-size="14" font-style="italic" lengthAdjust="spacing" textLength="25.6758" x="227" y="64.8105">Port</text><line style="stroke:#181818;stroke-width:0.5;" x1="199" x2="254.6758" y1="75.0137" y2="75.0137"/><line style="stroke:#181818;stroke-width:0.5;" x1="199" x2="254.6758" y1="83.0137" y2="83.0137"/></g><!--class port2--><g id="elem_port2"><rect codeLine="13" fill="#F1F1F1" height="48" id="port2" rx="2.5" ry="2.5" style="stroke:#181818;stroke-width:0.5;" width="57.6758" x="198" y="126.0137"/><ellipse cx="213" cy="142.0137" fill="#B4A7E5" rx="11" ry="11" style="stroke:#181818;stroke-width:1.0;"/><path d="M213.9531,138.6543 L213.9531,145.3105 L215.6719,145.3105 Q216.2813,145.3105 216.5469,145.5449 Q216.8125,145.7793 216.8125,146.1699 Q216.8125,146.5449 216.5469,146.7793 Q216.2813,147.0137 215.6719,147.0137 L210.5313,147.0137 Q209.9219,147.0137 209.6563,146.7793 Q209.3906,146.5449 209.3906,146.1543 Q209.3906,145.7793 209.6563,145.5449 Q209.9219,145.3105 210.5313,145.3105 L212.25,145.3105 L212.25,138.6543 L210.5313,138.6543 Q209.9219,138.6543 209.6563,138.4199 Q209.3906,138.1855 209.3906,137.7949 Q209.3906,137.4199 209.6563,137.1855 Q209.9219,136.9512 210.5313,136.9512 L215.6719,136.9512 Q216.2813,136.9512 216.5469,137.1855 Q216.8125,137.4199 216.8125,137.7949 Q216.8125,138.1855 216.5469,138.4199 Q216.2813,138.6543 215.6719,138.6543 L213.9531,138.6543 Z " fill="#000000"/><text fill="#000000" font-family="sans-serif" font-size="14" font-style="italic" lengthAdjust="spacing" textLength="25.6758" x="227" y="147.8105">Port</text><line style="stroke:#181818;stroke-width:0.5;" x1="199" x2="254.6758" y1="158.0137" y2="158.0137"/><line style="stroke:#181818;stroke-width:0.5;" x1="199" x2="254.6758" y1="166.0137" y2="166.0137"/></g><!--class port3--><g id="elem_port3"><rect codeLine="14" fill="#F1F1F1" height="48" id="port3" rx="2.5" ry="2.5" style="stroke:#181818;stroke-width:0.5;" width="57.6758" x="198" y="209.0137"/><ellipse cx="213" cy="225.0137" fill="#B4A7E5" rx="11" ry="11" style="stroke:#181818;stroke-width:1.0;"/><path d="M213.9531,221.6543 L213.9531,228.3105 L215.6719,228.3105 Q216.2813,228.3105 216.5469,228.5449 Q216.8125,228.7793 216.8125,229.1699 Q216.8125,229.5449 216.5469,229.7793 Q216.2813,230.0137 215.6719,230.0137 L210.5313,230.0137 Q209.9219,230.0137 209.6563,229.7793 Q209.3906,229.5449 209.3906,229.1543 Q209.3906,228.7793 209.6563,228.5449 Q209.9219,228.3105 210.5313,228.3105 L212.25,228.3105 L212.25,221.6543 L210.5313,221.6543 Q209.9219,221.6543 209.6563,221.4199 Q209.3906,221.1855 209.3906,220.7949 Q209.3906,220.4199 209.6563,220.1855 Q209.9219,219.9512 210.5313,219.9512 L215.6719,219.9512 Q216.2813,219.9512 216.5469,220.1855 Q216.8125,220.4199 216.8125,220.7949 Q216.8125,221.1855 216.5469,221.4199 Q216.2813,221.6543 215.6719,221.6543 L213.9531,221.6543 Z " fill="#000000"/><text fill="#000000" font-family="sans-serif" font-size="14" font-style="italic" lengthAdjust="spacing" textLength="25.6758" x="227" y="230.8105">Port</text><line style="stroke:#181818;stroke-width:0.5;" x1="199" x2="254.6758" y1="241.0137" y2="241.0137"/><line style="stroke:#181818;stroke-width:0.5;" x1="199" x2="254.6758" y1="249.0137" y2="249.0137"/></g><!--class service1--><g id="elem_service1"><rect codeLine="18" fill="#F1F1F1" height="48" id="service1" rx="2.5" ry="2.5" style="stroke:#181818;stroke-width:0.5;" width="78.6826" x="355" y="126.0137"/><ellipse cx="370" cy="142.0137" fill="#ADD1B2" rx="11" ry="11" style="stroke:#181818;stroke-width:1.0;"/><path d="M372.7656,137.8887 Q372.9219,137.6699 373.1094,137.5605 Q373.2969,137.4512 373.5156,137.4512 Q373.8906,137.4512 374.125,137.7168 Q374.3594,137.9668 374.3594,138.5762 L374.3594,140.0293 Q374.3594,140.6387 374.125,140.9043 Q373.8906,141.1699 373.5156,141.1699 Q373.1719,141.1699 372.9688,140.9668 Q372.7656,140.7793 372.6563,140.2637 Q372.6094,139.9043 372.4219,139.7168 Q372.0938,139.3418 371.4844,139.123 Q370.875,138.9043 370.25,138.9043 Q369.4844,138.9043 368.8438,139.2324 Q368.2188,139.5605 367.7188,140.3105 Q367.2344,141.0605 367.2344,142.0918 L367.2344,143.1855 Q367.2344,144.4199 368.125,145.248 Q369.0156,146.0605 370.6094,146.0605 Q371.5469,146.0605 372.2031,145.8105 Q372.5938,145.6543 373.0156,145.2168 Q373.2813,144.9512 373.4219,144.873 Q373.5781,144.7949 373.7813,144.7949 Q374.1094,144.7949 374.3594,145.0605 Q374.625,145.3105 374.625,145.6543 Q374.625,145.998 374.2813,146.4043 Q373.7813,146.9824 372.9844,147.3105 Q371.9063,147.7637 370.6094,147.7637 Q369.0938,147.7637 367.8906,147.1387 Q366.9063,146.6387 366.2188,145.5762 Q365.5313,144.498 365.5313,143.2168 L365.5313,142.0605 Q365.5313,140.7324 366.1406,139.5918 Q366.7656,138.4355 367.8594,137.8262 Q368.9531,137.2012 370.1875,137.2012 Q370.9219,137.2012 371.5625,137.373 Q372.2188,137.5293 372.7656,137.8887 Z " fill="#000000"/><text fill="#000000" font-family="sans-serif" font-size="14" lengthAdjust="spacing" textLength="46.6826" x="384" y="147.8105">Service</text><line style="stroke:#181818;stroke-width:0.5;" x1="356" x2="432.6826" y1="158.0137" y2="158.0137"/><line style="stroke:#181818;stroke-width:0.5;" x1="356" x2="432.6826" y1="166.0137" y2="166.0137"/></g><!--class service2--><g id="elem_service2"><rect codeLine="19" fill="#F1F1F1" height="48" id="service2" rx="2.5" ry="2.5" style="stroke:#181818;stroke-width:0.5;" width="78.6826" x="355" y="209.0137"/><ellipse cx="370" cy="225.0137" fill="#ADD1B2" rx="11" ry="11" style="stroke:#181818;stroke-width:1.0;"/><path d="M372.7656,220.8887 Q372.9219,220.6699 373.1094,220.5605 Q373.2969,220.4512 373.5156,220.4512 Q373.8906,220.4512 374.125,220.7168 Q374.3594,220.9668 374.3594,221.5762 L374.3594,223.0293 Q374.3594,223.6387 374.125,223.9043 Q373.8906,224.1699 373.5156,224.1699 Q373.1719,224.1699 372.9688,223.9668 Q372.7656,223.7793 372.6563,223.2637 Q372.6094,222.9043 372.4219,222.7168 Q372.0938,222.3418 371.4844,222.123 Q370.875,221.9043 370.25,221.9043 Q369.4844,221.9043 368.8438,222.2324 Q368.2188,222.5605 367.7188,223.3105 Q367.2344,224.0605 367.2344,225.0918 L367.2344,226.1855 Q367.2344,227.4199 368.125,228.248 Q369.0156,229.0605 370.6094,229.0605 Q371.5469,229.0605 372.2031,228.8105 Q372.5938,228.6543 373.0156,228.2168 Q373.2813,227.9512 373.4219,227.873 Q373.5781,227.7949 373.7813,227.7949 Q374.1094,227.7949 374.3594,228.0605 Q374.625,228.3105 374.625,228.6543 Q374.625,228.998 374.2813,229.4043 Q373.7813,229.9824 372.9844,230.3105 Q371.9063,230.7637 370.6094,230.7637 Q369.0938,230.7637 367.8906,230.1387 Q366.9063,229.6387 366.2188,228.5762 Q365.5313,227.498 365.5313,226.2168 L365.5313,225.0605 Q365.5313,223.7324 366.1406,222.5918 Q366.7656,221.4355 367.8594,220.8262 Q368.9531,220.2012 370.1875,220.2012 Q370.9219,220.2012 371.5625,220.373 Q372.2188,220.5293 372.7656,220.8887 Z " fill="#000000"/><text fill="#000000" font-family="sans-serif" font-size="14" lengthAdjust="spacing" textLength="46.6826" x="384" y="230.8105">Service</text><line style="stroke:#181818;stroke-width:0.5;" x1="356" x2="432.6826" y1="241.0137" y2="241.0137"/><line style="stroke:#181818;stroke-width:0.5;" x1="356" x2="432.6826" y1="249.0137" y2="249.0137"/></g><!--link con1 to port1--><g id="link_con1_port1"><path codeLine="22" d="M115.19,67.0137 C141.89,67.0137 168.76,67.0137 191.73,67.0137 " fill="none" id="con1-to-port1" style="stroke:#181818;stroke-width:1.0;"/><polygon fill="#181818" points="197.73,67.0137,188.73,63.0137,192.73,67.0137,188.73,71.0137,197.73,67.0137" style="stroke:#181818;stroke-width:1.0;"/></g><!--link con2 to port2--><g id="link_con2_port2"><path codeLine="23" d="M115.19,150.0137 C141.89,150.0137 168.76,150.0137 191.73,150.0137 " fill="none" id="con2-to-port2" style="stroke:#181818;stroke-width:1.0;"/><polygon fill="#181818" points="197.73,150.0137,188.73,146.0137,192.73,150.0137,188.73,154.0137,197.73,150.0137" style="stroke:#181818;stroke-width:1.0;"/></g><!--link con2 to port3--><g id="link_con2_port3"><path codeLine="24" d="M114.77,174.0237 C141.49,188.1937 169.1897,202.8817 192.2797,215.1317 " fill="none" id="con2-to-port3" style="stroke:#181818;stroke-width:1.0;"/><polygon fill="#181818" points="197.58,217.9437,191.5042,210.1922,193.1631,215.6004,187.755,217.2592,197.58,217.9437" style="stroke:#181818;stroke-width:1.0;"/></g><!--reverse link port1 to service1--><g id="link_port1_service1"><path codeLine="26" d="M272.1602,89.1625 C299.2802,102.7625 324.48,115.3937 354.72,130.5637 " fill="none" id="port1-backto-service1" style="stroke:#181818;stroke-width:1.0;"/><polygon fill="none" points="256.07,81.0937,269.4706,94.5259,274.8498,83.7991,256.07,81.0937" style="stroke:#181818;stroke-width:1.0;"/></g><!--reverse link port2 to service1--><g id="link_port2_service1"><path codeLine="27" d="M274.07,150.0137 C301.19,150.0137 324.48,150.0137 354.72,150.0137 " fill="none" id="port2-backto-service1" style="stroke:#181818;stroke-width:1.0;"/><polygon fill="none" points="256.07,150.0137,274.07,156.0137,274.07,144.0137,256.07,150.0137" style="stroke:#181818;stroke-width:1.0;"/></g><!--reverse link port3 to service2--><g id="link_port3_service2"><path codeLine="28" d="M274.07,233.0137 C301.19,233.0137 324.48,233.0137 354.72,233.0137 " fill="none" id="port3-backto-service2" style="stroke:#181818;stroke-width:1.0;"/><polygon fill="none" points="256.07,233.0137,274.07,239.0137,274.07,227.0137,256.07,233.0137" style="stroke:#181818;stroke-width:1.0;"/></g><!--SRC=[VP31JiCm343l-Geh5qvfHNf3Y0i_WBGly5AlYqYJo35m6FmxMRkXHGLoilqYFzjtHv5S7le-1upoDeVEfRbt0KineyU9SLQga42XZ8oI66AAf08T12G1- -aeC7ec9pv5fJAwLvm8D8wOXRZpiVkWlOQJWlgMpk1Il0Sie9zJ54uX4EiMsmt-kksTS_0EpyOk9vOgkGfyhD83Ee8pM2qlDTA_KFil7MxeN_92_EuTjTjTYgjxT_cnvRRbLR6SnPYdTNIrdE6QsZOTwa3BVe-VnlmOrRhLjZOqDQk-0G00]--></g></svg>