<svg xmlns="http://www.w3.org/2000/svg" xmlns:xlink="http://www.w3.org/1999/xlink" contentStyleType="text/css" height="379px" preserveAspectRatio="none" style="width:1112px;height:379px;background:#FFFFFF;" version="1.1" viewBox="0 0 1112 379" width="1112px" zoomAndPan="magnify"><defs/><g><g id="cluster_##2"><rect fill="none" height="177.22" rx="2.5" ry="2.5" style="stroke:#181818;stroke-width:1.0;stroke-dasharray:7.0,7.0;" width="168" x="7" y="79.92"/></g><g id="cluster_##6"><rect fill="none" height="86.58" rx="2.5" ry="2.5" style="stroke:#181818;stroke-width:1.0;stroke-dasharray:7.0,7.0;" width="659" x="199" y="71.94"/></g><g id="cluster_##11"><rect fill="none" height="177.22" rx="2.5" ry="2.5" style="stroke:#181818;stroke-width:1.0;stroke-dasharray:7.0,7.0;" width="224" x="882" y="79.92"/></g><g id="cluster_##15"><rect fill="none" height="187.37" rx="2.5" ry="2.5" style="stroke:#181818;stroke-width:1.0;stroke-dasharray:7.0,7.0;" width="168" x="350" y="186.52"/></g><!--entity ac--><g id="elem_ac"><rect fill="#F1F1F1" height="38.6211" rx="2.5" ry="2.5" style="stroke:#181818;stroke-width:0.5;" width="135.165" x="23.42" y="95.92"/><text fill="#000000" font-family="sans-serif" font-size="14" lengthAdjust="spacing" textLength="115.165" x="33.42" y="121.0274">Account Controller</text></g><!--entity wm--><g id="elem_wm"><rect fill="#F1F1F1" height="38.6211" rx="2.5" ry="2.5" style="stroke:#181818;stroke-width:0.5;" width="86.917" x="59.54" y="202.52"/><text fill="#000000" font-family="sans-serif" font-size="14" lengthAdjust="spacing" textLength="66.917" x="69.54" y="227.6274">WebModel</text></g><g id="elem_smuc"><ellipse cx="489.0016" cy="115.2272" fill="#F1F1F1" rx="97.1016" ry="27.2872" style="stroke:#181818;stroke-width:0.5;"/><text fill="#000000" font-family="sans-serif" font-size="14" font-style="italic" lengthAdjust="spacing" textLength="69.2686" x="447.779" y="108.5155">&#171;interface&#187;</text><text fill="#000000" font-family="sans-serif" font-size="14" lengthAdjust="spacing" textLength="132.2959" x="416.2654" y="127.1366">SendMoneyUseCase</text></g><!--entity sms--><g id="elem_sms"><rect fill="#F1F1F1" height="38.6211" rx="2.5" ry="2.5" style="stroke:#181818;stroke-width:0.5;" width="141.3994" x="215.3" y="95.92"/><text fill="#000000" font-family="sans-serif" font-size="14" lengthAdjust="spacing" textLength="121.3994" x="225.3" y="121.0274">SendMoneyService</text></g><g id="elem_uasp"><ellipse cx="732.0021" cy="115.232" fill="#F1F1F1" rx="110.4921" ry="27.102" style="stroke:#181818;stroke-width:0.5;"/><text fill="#000000" font-family="sans-serif" font-size="14" font-style="italic" lengthAdjust="spacing" textLength="69.2686" x="690.3576" y="108.1334">&#171;interface&#187;</text><text fill="#000000" font-family="sans-serif" font-size="14" lengthAdjust="spacing" textLength="154.0957" x="647.944" y="126.7545">UpdateAccountStatePort</text></g><!--entity apa--><g id="elem_apa"><rect fill="#F1F1F1" height="38.6211" rx="2.5" ry="2.5" style="stroke:#181818;stroke-width:0.5;" width="192.7646" x="897.62" y="95.92"/><text fill="#000000" font-family="sans-serif" font-size="14" lengthAdjust="spacing" textLength="172.7646" x="907.62" y="121.0274">AccountPersistenceAdapter</text></g><!--entity pm--><g id="elem_pm"><rect fill="#F1F1F1" height="38.6211" rx="2.5" ry="2.5" style="stroke:#181818;stroke-width:0.5;" width="131.2754" x="913.36" y="202.52"/><text fill="#000000" font-family="sans-serif" font-size="14" lengthAdjust="spacing" textLength="111.2754" x="923.36" y="227.6274">PersistenceModel</text></g><!--entity acc--><g id="elem_acc"><rect fill="#F1F1F1" height="38.6211" rx="2.5" ry="2.5" style="stroke:#181818;stroke-width:0.5;" width="70.5859" x="365.71" y="202.52"/><text fill="#000000" font-family="sans-serif" font-size="14" lengthAdjust="spacing" textLength="50.5859" x="375.71" y="227.6274">Account</text></g><g id="elem_accStatus"><ellipse cx="434" cy="329.5066" fill="#F1F1F1" rx="67.92" ry="28.3766" style="stroke:#181818;stroke-width:0.5;"/><text fill="#000000" font-family="sans-serif" font-size="14" font-style="italic" lengthAdjust="spacing" textLength="69.2686" x="393.6542" y="324.7467">&#171;interface&#187;</text><text fill="#000000" font-family="sans-serif" font-size="14" lengthAdjust="spacing" textLength="83.2754" x="386.6508" y="343.3678">AccountState</text></g><!--link ac to wm--><g id="link_ac_wm"><path d="M93.15,134.93 C95.33,153.97 98.0185,177.3488 100.1885,196.3288 " fill="none" id="ac-to-wm" style="stroke:#181818;stroke-width:1.0;"/><polygon fill="#181818" points="100.87,202.29,103.8218,192.8939,100.302,197.3224,95.8736,193.8026,100.87,202.29" style="stroke:#181818;stroke-width:1.0;"/></g><!--link wm to accStatus--><g id="link_wm_accStatus"><path d="M146.95,236.86 C207.36,256.15 298.7624,285.3363 363.6724,306.0563 " fill="none" id="wm-to-accStatus" style="stroke:#181818;stroke-width:1.0;"/><polygon fill="none" points="380.82,311.53,365.497,300.3405,361.8479,311.7722,380.82,311.53" style="stroke:#181818;stroke-width:1.0;"/></g><!--link ac to smuc--><g id="link_ac_smuc"><path d="M112.59,95.59 C136.14,75.61 175.92,45.93 216.5,33.94 C276.17,16.3 296.62,17.04 356.5,33.94 C394.42,44.65 427.4121,65.9376 452.8721,85.3876 " fill="none" id="ac-to-smuc" style="stroke:#181818;stroke-width:1.0;"/><polygon fill="#181818" points="457.64,89.03,452.9164,80.3878,453.6667,85.9947,448.0599,86.745,457.64,89.03" style="stroke:#181818;stroke-width:1.0;"/></g><!--reverse link smuc to sms--><g id="link_smuc_sms"><path d="M373.53,115.23 C362.01,115.23 368.49,115.23 356.97,115.23 " fill="none" id="smuc-backto-sms" style="stroke:#181818;stroke-width:1.0;"/><polygon fill="none" points="391.53,115.23,373.53,109.23,373.53,121.23,391.53,115.23" style="stroke:#181818;stroke-width:1.0;"/></g><!--link sms to uasp--><g id="link_sms_uasp"><path d="M303.53,95.65 C322.81,75.72 355.82,46.09 391.5,33.94 C473.54,6 502.63,12.1 586.5,33.94 C627.52,44.62 664.3055,66.2867 692.4955,85.7867 " fill="none" id="sms-to-uasp" style="stroke:#181818;stroke-width:1.0;"/><polygon fill="#181818" points="697.43,89.2,692.3039,80.7903,693.3179,86.3555,687.7527,87.3696,697.43,89.2" style="stroke:#181818;stroke-width:1.0;"/></g><!--link smuc to accStatus--><g id="link_smuc_accStatus"><path d="M483.4,142.74 C476.93,172.64 465.69,222.63 454,265.14 C450.73,277.04 448.5434,284.3602 444.9534,295.4802 " fill="none" id="smuc-to-accStatus" style="stroke:#181818;stroke-width:1.0;"/><polygon fill="#181818" points="443.11,301.19,449.6816,293.8542,444.6461,296.4318,442.0685,291.3964,443.11,301.19" style="stroke:#181818;stroke-width:1.0;"/></g><!--link sms to acc--><g id="link_sms_acc"><path d="M306.56,134.93 C327.49,153.97 355.3111,179.2731 376.1811,198.2531 " fill="none" id="sms-to-acc" style="stroke:#181818;stroke-width:1.0;"/><polygon fill="#181818" points="380.62,202.29,376.653,193.2754,376.9209,198.9259,371.2704,199.1939,380.62,202.29" style="stroke:#181818;stroke-width:1.0;"/></g><!--link uasp to accStatus--><g id="link_uasp_accStatus"><path d="M696.94,141.2 C639.09,182.41 529.2865,260.6283 472.4465,301.1283 " fill="none" id="uasp-to-accStatus" style="stroke:#181818;stroke-width:1.0;"/><polygon fill="#181818" points="467.56,304.61,477.2109,302.645,471.6321,301.7086,472.5685,296.1298,467.56,304.61" style="stroke:#181818;stroke-width:1.0;"/></g><!--link acc to accStatus--><g id="link_acc_accStatus"><path d="M406.75,241.24 C411.92,257.8 414.2116,265.1592 420.1016,284.0092 " fill="none" id="acc-to-accStatus" style="stroke:#181818;stroke-width:1.0;"/><polygon fill="none" points="425.47,301.19,425.8285,282.2197,414.3746,285.7987,425.47,301.19" style="stroke:#181818;stroke-width:1.0;"/></g><!--reverse link uasp to apa--><g id="link_uasp_apa"><path d="M834.582,134.9788 C861.482,137.9388 870.48,136.35 897.38,134.16 " fill="none" id="uasp-backto-apa" style="stroke:#181818;stroke-width:1.0;"/><polygon fill="none" points="816.69,133.01,833.9257,140.9428,835.2383,129.0148,816.69,133.01" style="stroke:#181818;stroke-width:1.0;"/></g><!--link apa to pm--><g id="link_apa_pm"><path d="M991.32,134.93 C988.59,153.97 985.2312,177.3707 982.5112,196.3507 " fill="none" id="apa-to-pm" style="stroke:#181818;stroke-width:1.0;"/><polygon fill="#181818" points="981.66,202.29,986.8963,193.9485,982.3693,197.3406,978.9772,192.8136,981.66,202.29" style="stroke:#181818;stroke-width:1.0;"/></g><!--link pm to accStatus--><g id="link_pm_accStatus"><path d="M912.99,235.63 C806.43,256.29 615.7308,293.2731 512.5508,313.2831 " fill="none" id="pm-to-accStatus" style="stroke:#181818;stroke-width:1.0;"/><polygon fill="none" points="494.88,316.71,513.6931,319.1733,511.4085,307.3928,494.88,316.71" style="stroke:#181818;stroke-width:1.0;"/></g><!--SRC=[ZP1BQm8n58Nt-HM1BhIBSVPb613NWZ185yN5RNAhG_CYkLEHsl_UFCO7LR21X4k-avDxpsH7vC9BNJi5XWQjPiBgEcvd3HggP0zR3vgnyDaR1x7aPzZHGI7tA0ZCLY6RN3IgDqW7Xznwsbd6s5d5dnARIGWxbFoRyRZUvaBOmH1VM4FUAeL-mo5m40M_ullIIbJvSg_PpmE_QOT6BcEFXtN01GHyvatJ6qB_0GBRDja4FOpkPt67_giNk2au5Akraq0uDjXHh5TnfZk60mJtiBFJf2lqeG-4Hk1SWgFJm0wAx8fV9dVwt_vZV6N2wNNtTpgFkeI6aEmP25vLROfvhsDrRAzuXct9BXsyELOvghWJo1aKaZmk3pClDoo9_k3eAsx-ohhqGKg5nIC_YY6ucxv-0G00]--></g></svg>